<svg xmlns="http://www.w3.org/2000/svg" width="1100" height="420" viewBox="0 0 1100 420">
  <rect width="100%" height="100%" fill="#080d18"/>
  <text x="64" y="20" fill="#f8fafc" font-size="16" font-family="Arial">Equity Curve: $10,000.00 to $11,366.60</text>
  <line x1="64" y1="28.0" x2="1076" y2="28.0" stroke="#253044" stroke-width="1"/><line x1="64" y1="114.0" x2="1076" y2="114.0" stroke="#253044" stroke-width="1"/><line x1="64" y1="200.0" x2="1076" y2="200.0" stroke="#253044" stroke-width="1"/><line x1="64" y1="286.0" x2="1076" y2="286.0" stroke="#253044" stroke-width="1"/><line x1="64" y1="372.0" x2="1076" y2="372.0" stroke="#253044" stroke-width="1"/>
  <text x="12" y="32.0" fill="#94a3b8" font-size="12">$12,260</text><text x="12" y="118.0" fill="#94a3b8" font-size="12">$11,695</text><text x="12" y="204.0" fill="#94a3b8" font-size="12">$11,130</text><text x="12" y="290.0" fill="#94a3b8" font-size="12">$10,565</text><text x="12" y="376.0" fill="#94a3b8" font-size="12">$10,000</text>
  <polygon points="64,372 64.0,372.0 91.4,326.3 118.7,357.7 146.1,311.6 173.4,301.1 200.8,290.4 228.1,226.3 255.5,176.3 282.8,130.5 310.2,165.7 337.5,200.3 364.9,234.2 392.2,167.8 419.6,187.7 446.9,151.0 474.3,95.4 501.6,131.4 529.0,110.5 556.3,98.6 583.7,95.1 611.0,131.0 638.4,166.3 665.7,154.8 693.1,114.2 720.4,72.7 747.8,109.1 775.1,55.5 802.5,28.0 829.8,65.3 857.2,101.9 884.5,137.7 911.9,126.0 939.2,73.0 966.6,109.4 993.9,104.6 1021.3,140.4 1048.6,175.5 1076.0,164.0 1076,372" fill="#10b981" opacity="0.16"/>
  <polyline points="64.0,372.0 91.4,326.3 118.7,357.7 146.1,311.6 173.4,301.1 200.8,290.4 228.1,226.3 255.5,176.3 282.8,130.5 310.2,165.7 337.5,200.3 364.9,234.2 392.2,167.8 419.6,187.7 446.9,151.0 474.3,95.4 501.6,131.4 529.0,110.5 556.3,98.6 583.7,95.1 611.0,131.0 638.4,166.3 665.7,154.8 693.1,114.2 720.4,72.7 747.8,109.1 775.1,55.5 802.5,28.0 829.8,65.3 857.2,101.9 884.5,137.7 911.9,126.0 939.2,73.0 966.6,109.4 993.9,104.6 1021.3,140.4 1048.6,175.5 1076.0,164.0" fill="none" stroke="#22c55e" stroke-width="3"/>
  <line x1="64" y1="372" x2="1076" y2="372" stroke="#334155"/>
  <line x1="64" y1="28" x2="64" y2="372" stroke="#334155"/>
  <text x="64" y="404" fill="#94a3b8" font-size="12" font-family="Arial">start</text>
  <text x="1042" y="404" fill="#94a3b8" font-size="12" font-family="Arial">end</text>
</svg>