<svg xmlns="http://www.w3.org/2000/svg" viewBox="0 0 1600 820" role="img" aria-label="Trade 29 chart">
<rect width="1600" height="820" fill="#080d16"/>
<text x="40.0" y="42.0" fill="#dce7f7" font-size="28" font-family="Segoe UI,Arial,sans-serif" text-anchor="start" font-weight="600">Trade 29 / BUY / FRIDAY FILL</text>
<text x="40.0" y="76.0" fill="#92a6bf" font-size="16" font-family="Segoe UI,Arial,sans-serif" text-anchor="start" font-weight="400">Entry 2026-03-20 23:50 UTC  |  Exit 2026-03-23 01:00 UTC</text>
<text x="1560.0" y="43.0" fill="#ff647c" font-size="28" font-family="Segoe UI,Arial,sans-serif" text-anchor="end" font-weight="600">-1.000R</text>
<text x="1560.0" y="76.0" fill="#92a6bf" font-size="16" font-family="Segoe UI,Arial,sans-serif" text-anchor="end" font-weight="400">SL  |  spread $0.56</text>
<rect x="82" y="112" width="1398" height="606" fill="#0c1421" stroke="#25344a"/>
<line x1="82" y1="112.0" x2="1480" y2="112.0" stroke="#233047" stroke-width="1"/>
<text x="1492.0" y="117.0" fill="#8799b0" font-size="13" font-family="Segoe UI,Arial,sans-serif" text-anchor="start" font-weight="400">4,587.43</text>
<line x1="82" y1="233.2" x2="1480" y2="233.2" stroke="#233047" stroke-width="1"/>
<text x="1492.0" y="238.2" fill="#8799b0" font-size="13" font-family="Segoe UI,Arial,sans-serif" text-anchor="start" font-weight="400">4,558.02</text>
<line x1="82" y1="354.4" x2="1480" y2="354.4" stroke="#233047" stroke-width="1"/>
<text x="1492.0" y="359.4" fill="#8799b0" font-size="13" font-family="Segoe UI,Arial,sans-serif" text-anchor="start" font-weight="400">4,528.61</text>
<line x1="82" y1="475.6" x2="1480" y2="475.6" stroke="#233047" stroke-width="1"/>
<text x="1492.0" y="480.6" fill="#8799b0" font-size="13" font-family="Segoe UI,Arial,sans-serif" text-anchor="start" font-weight="400">4,499.19</text>
<line x1="82" y1="596.8" x2="1480" y2="596.8" stroke="#233047" stroke-width="1"/>
<text x="1492.0" y="601.8" fill="#8799b0" font-size="13" font-family="Segoe UI,Arial,sans-serif" text-anchor="start" font-weight="400">4,469.78</text>
<line x1="82" y1="718.0" x2="1480" y2="718.0" stroke="#233047" stroke-width="1"/>
<text x="1492.0" y="723.0" fill="#8799b0" font-size="13" font-family="Segoe UI,Arial,sans-serif" text-anchor="start" font-weight="400">4,440.37</text>
<rect x="900.3" y="112" width="34.1" height="606" fill="#f0bd4e" fill-opacity="0.18"/>
<text x="924.4" y="133.0" fill="#f0bd4e" font-size="13" font-family="Segoe UI,Arial,sans-serif" text-anchor="start" font-weight="400">WEEKLY REOPEN</text>
<line x1="99.0" y1="460.4" x2="99.0" y2="470.9" stroke="#ff6078" stroke-width="1"/>
<rect x="95.5" y="464.7" width="7.0" height="2.4" fill="#ff6078"/>
<line x1="133.1" y1="455.4" x2="133.1" y2="470.5" stroke="#25c99a" stroke-width="1"/>
<rect x="129.6" y="457.0" width="7.0" height="10.2" fill="#25c99a"/>
<line x1="167.2" y1="453.4" x2="167.2" y2="465.3" stroke="#ff6078" stroke-width="1"/>
<rect x="163.7" y="456.0" width="7.0" height="8.0" fill="#ff6078"/>
<line x1="201.3" y1="457.7" x2="201.3" y2="472.5" stroke="#ff6078" stroke-width="1"/>
<rect x="197.8" y="464.0" width="7.0" height="6.8" fill="#ff6078"/>
<line x1="235.4" y1="461.8" x2="235.4" y2="474.0" stroke="#25c99a" stroke-width="1"/>
<rect x="231.9" y="465.5" width="7.0" height="5.7" fill="#25c99a"/>
<line x1="269.5" y1="465.5" x2="269.5" y2="482.5" stroke="#ff6078" stroke-width="1"/>
<rect x="266.0" y="465.5" width="7.0" height="8.5" fill="#ff6078"/>
<line x1="303.6" y1="458.3" x2="303.6" y2="478.0" stroke="#25c99a" stroke-width="1"/>
<rect x="300.1" y="465.0" width="7.0" height="9.0" fill="#25c99a"/>
<line x1="337.7" y1="459.6" x2="337.7" y2="470.0" stroke="#ff6078" stroke-width="1"/>
<rect x="334.2" y="465.0" width="7.0" height="3.5" fill="#ff6078"/>
<line x1="371.8" y1="454.4" x2="371.8" y2="468.6" stroke="#25c99a" stroke-width="1"/>
<rect x="368.3" y="460.6" width="7.0" height="7.7" fill="#25c99a"/>
<line x1="405.9" y1="456.6" x2="405.9" y2="474.1" stroke="#ff6078" stroke-width="1"/>
<rect x="402.4" y="462.7" width="7.0" height="6.1" fill="#ff6078"/>
<line x1="440.0" y1="466.8" x2="440.0" y2="485.9" stroke="#ff6078" stroke-width="1"/>
<rect x="436.5" y="468.9" width="7.0" height="13.0" fill="#ff6078"/>
<line x1="474.1" y1="472.0" x2="474.1" y2="485.8" stroke="#25c99a" stroke-width="1"/>
<rect x="470.6" y="474.3" width="7.0" height="7.6" fill="#25c99a"/>
<line x1="508.2" y1="468.8" x2="508.2" y2="481.6" stroke="#ff6078" stroke-width="1"/>
<rect x="504.7" y="474.3" width="7.0" height="2.4" fill="#ff6078"/>
<line x1="542.3" y1="460.2" x2="542.3" y2="476.6" stroke="#25c99a" stroke-width="1"/>
<rect x="538.8" y="460.2" width="7.0" height="16.4" fill="#25c99a"/>
<line x1="576.4" y1="458.6" x2="576.4" y2="481.1" stroke="#ff6078" stroke-width="1"/>
<rect x="572.9" y="460.2" width="7.0" height="20.0" fill="#ff6078"/>
<line x1="610.5" y1="474.9" x2="610.5" y2="487.0" stroke="#ff6078" stroke-width="1"/>
<rect x="607.0" y="480.2" width="7.0" height="3.2" fill="#ff6078"/>
<line x1="644.6" y1="479.5" x2="644.6" y2="486.9" stroke="#ff6078" stroke-width="1"/>
<rect x="641.1" y="483.4" width="7.0" height="2.2" fill="#ff6078"/>
<line x1="678.7" y1="473.6" x2="678.7" y2="489.1" stroke="#25c99a" stroke-width="1"/>
<rect x="675.2" y="481.2" width="7.0" height="4.5" fill="#25c99a"/>
<line x1="712.8" y1="480.3" x2="712.8" y2="496.9" stroke="#ff6078" stroke-width="1"/>
<rect x="709.3" y="481.2" width="7.0" height="3.3" fill="#ff6078"/>
<line x1="746.9" y1="475.7" x2="746.9" y2="485.9" stroke="#25c99a" stroke-width="1"/>
<rect x="743.4" y="476.6" width="7.0" height="7.8" fill="#25c99a"/>
<line x1="781.0" y1="460.7" x2="781.0" y2="477.6" stroke="#25c99a" stroke-width="1"/>
<rect x="777.5" y="463.0" width="7.0" height="13.6" fill="#25c99a"/>
<line x1="815.1" y1="455.9" x2="815.1" y2="470.5" stroke="#ff6078" stroke-width="1"/>
<rect x="811.6" y="463.0" width="7.0" height="1.2" fill="#ff6078"/>
<line x1="849.2" y1="464.0" x2="849.2" y2="479.8" stroke="#ff6078" stroke-width="1"/>
<rect x="845.7" y="464.0" width="7.0" height="6.8" fill="#ff6078"/>
<line x1="883.3" y1="470.8" x2="883.3" y2="496.7" stroke="#ff6078" stroke-width="1"/>
<rect x="879.8" y="470.8" width="7.0" height="19.1" fill="#ff6078"/>
<line x1="917.4" y1="518.5" x2="917.4" y2="607.0" stroke="#25c99a" stroke-width="1"/>
<rect x="913.9" y="519.7" width="7.0" height="78.3" fill="#25c99a"/>
<line x1="951.5" y1="520.9" x2="951.5" y2="566.9" stroke="#ff6078" stroke-width="1"/>
<rect x="948.0" y="523.3" width="7.0" height="40.7" fill="#ff6078"/>
<line x1="985.6" y1="562.2" x2="985.6" y2="631.8" stroke="#ff6078" stroke-width="1"/>
<rect x="982.1" y="564.3" width="7.0" height="67.4" fill="#ff6078"/>
<line x1="1019.7" y1="618.7" x2="1019.7" y2="685.5" stroke="#ff6078" stroke-width="1"/>
<rect x="1016.2" y="618.7" width="7.0" height="33.1" fill="#ff6078"/>
<line x1="1053.8" y1="572.6" x2="1053.8" y2="656.9" stroke="#25c99a" stroke-width="1"/>
<rect x="1050.3" y="572.6" width="7.0" height="75.5" fill="#25c99a"/>
<line x1="1087.9" y1="493.5" x2="1087.9" y2="585.0" stroke="#25c99a" stroke-width="1"/>
<rect x="1084.4" y="508.8" width="7.0" height="64.5" fill="#25c99a"/>
<line x1="1122.0" y1="469.3" x2="1122.0" y2="542.6" stroke="#ff6078" stroke-width="1"/>
<rect x="1118.5" y="508.8" width="7.0" height="16.0" fill="#ff6078"/>
<line x1="1156.1" y1="406.3" x2="1156.1" y2="524.8" stroke="#25c99a" stroke-width="1"/>
<rect x="1152.6" y="449.5" width="7.0" height="75.4" fill="#25c99a"/>
<line x1="1190.2" y1="443.3" x2="1190.2" y2="498.2" stroke="#ff6078" stroke-width="1"/>
<rect x="1186.7" y="454.4" width="7.0" height="7.7" fill="#ff6078"/>
<line x1="1224.3" y1="419.8" x2="1224.3" y2="463.3" stroke="#25c99a" stroke-width="1"/>
<rect x="1220.8" y="426.0" width="7.0" height="36.0" fill="#25c99a"/>
<line x1="1258.4" y1="409.7" x2="1258.4" y2="452.2" stroke="#ff6078" stroke-width="1"/>
<rect x="1254.9" y="426.2" width="7.0" height="13.7" fill="#ff6078"/>
<line x1="1292.5" y1="439.4" x2="1292.5" y2="472.6" stroke="#ff6078" stroke-width="1"/>
<rect x="1289.0" y="439.5" width="7.0" height="32.3" fill="#ff6078"/>
<line x1="1326.6" y1="462.1" x2="1326.6" y2="510.8" stroke="#25c99a" stroke-width="1"/>
<rect x="1323.1" y="469.1" width="7.0" height="2.7" fill="#25c99a"/>
<line x1="1360.7" y1="453.0" x2="1360.7" y2="469.6" stroke="#25c99a" stroke-width="1"/>
<rect x="1357.2" y="464.2" width="7.0" height="5.3" fill="#25c99a"/>
<line x1="1394.8" y1="438.0" x2="1394.8" y2="469.2" stroke="#25c99a" stroke-width="1"/>
<rect x="1391.3" y="443.4" width="7.0" height="20.8" fill="#25c99a"/>
<line x1="1428.9" y1="436.4" x2="1428.9" y2="449.2" stroke="#25c99a" stroke-width="1"/>
<rect x="1425.4" y="439.9" width="7.0" height="3.2" fill="#25c99a"/>
<line x1="1463.0" y1="434.1" x2="1463.0" y2="458.0" stroke="#ff6078" stroke-width="1"/>
<rect x="1459.5" y="439.9" width="7.0" height="1.5" fill="#ff6078"/>
<line x1="746.9" y1="474.1" x2="1480" y2="474.1" stroke="#6da9ff" stroke-width="1.5" stroke-dasharray="4 4"/>
<text x="1473.0" y="469.1" fill="#6da9ff" font-size="12" font-family="Segoe UI,Arial,sans-serif" text-anchor="end" font-weight="600">PENDING 4,499.55</text>
<line x1="746.9" y1="474.1" x2="1480" y2="474.1" stroke="#42d9e8" stroke-width="1.5"/>
<text x="1473.0" y="469.1" fill="#42d9e8" font-size="12" font-family="Segoe UI,Arial,sans-serif" text-anchor="end" font-weight="600">FILL 4,499.55</text>
<line x1="746.9" y1="556.6" x2="1480" y2="556.6" stroke="#ff6078" stroke-width="1.5"/>
<text x="1473.0" y="551.6" fill="#ff6078" font-size="12" font-family="Segoe UI,Arial,sans-serif" text-anchor="end" font-weight="600">SL 4,479.55</text>
<line x1="746.9" y1="144.5" x2="1480" y2="144.5" stroke="#25c99a" stroke-width="1.5"/>
<text x="1473.0" y="139.5" fill="#25c99a" font-size="12" font-family="Segoe UI,Arial,sans-serif" text-anchor="end" font-weight="600">TP 4,579.55</text>
<line x1="746.9" y1="556.6" x2="1480" y2="556.6" stroke="#f0bd4e" stroke-width="1.5" stroke-dasharray="6 3"/>
<text x="1473.0" y="551.6" fill="#f0bd4e" font-size="12" font-family="Segoe UI,Arial,sans-serif" text-anchor="end" font-weight="600">EXIT 4,479.55</text>
<line x1="746.9" y1="112" x2="746.9" y2="718" stroke="#42d9e8" stroke-width="2"/>
<line x1="917.4" y1="112" x2="917.4" y2="718" stroke="#f0bd4e" stroke-width="2"/>
<text x="751.9" y="706.0" fill="#42d9e8" font-size="12" font-family="Segoe UI,Arial,sans-serif" text-anchor="start" font-weight="400">ENTRY</text>
<text x="912.4" y="706.0" fill="#f0bd4e" font-size="12" font-family="Segoe UI,Arial,sans-serif" text-anchor="end" font-weight="400">EXIT</text>
<text x="99.0" y="746.0" fill="#8799b0" font-size="12" font-family="Segoe UI,Arial,sans-serif" text-anchor="middle" font-weight="400">Mar 20 23:31</text>
<text x="337.7" y="746.0" fill="#8799b0" font-size="12" font-family="Segoe UI,Arial,sans-serif" text-anchor="middle" font-weight="400">Mar 20 23:38</text>
<text x="542.3" y="746.0" fill="#8799b0" font-size="12" font-family="Segoe UI,Arial,sans-serif" text-anchor="middle" font-weight="400">Mar 20 23:44</text>
<text x="781.0" y="746.0" fill="#8799b0" font-size="12" font-family="Segoe UI,Arial,sans-serif" text-anchor="middle" font-weight="400">Mar 20 23:51</text>
<text x="1019.7" y="746.0" fill="#8799b0" font-size="12" font-family="Segoe UI,Arial,sans-serif" text-anchor="middle" font-weight="400">Mar 23 01:03</text>
<text x="1224.3" y="746.0" fill="#8799b0" font-size="12" font-family="Segoe UI,Arial,sans-serif" text-anchor="middle" font-weight="400">Mar 23 01:09</text>
<text x="1463.0" y="746.0" fill="#8799b0" font-size="12" font-family="Segoe UI,Arial,sans-serif" text-anchor="middle" font-weight="400">Mar 23 01:16</text>
<text x="82.0" y="790.0" fill="#92a6bf" font-size="15" font-family="Segoe UI,Arial,sans-serif" text-anchor="start" font-weight="400">Offset $1.5  |  lead 5m  |  SL $20  |  RR 4:1  |  max hold 720 market minutes</text>
</svg>