<svg xmlns="http://www.w3.org/2000/svg" viewBox="0 0 1600 820" role="img" aria-label="Trade 40 chart">
<rect width="1600" height="820" fill="#080d16"/>
<text x="40.0" y="42.0" fill="#dce7f7" font-size="28" font-family="Segoe UI,Arial,sans-serif" text-anchor="start" font-weight="600">Trade 40 / BUY / FRIDAY FILL</text>
<text x="40.0" y="76.0" fill="#92a6bf" font-size="16" font-family="Segoe UI,Arial,sans-serif" text-anchor="start" font-weight="400">Entry 2026-06-12 23:50 UTC  |  Exit 2026-06-15 01:03 UTC</text>
<text x="1560.0" y="43.0" fill="#28d7a1" font-size="28" font-family="Segoe UI,Arial,sans-serif" text-anchor="end" font-weight="600">+4.000R</text>
<text x="1560.0" y="76.0" fill="#92a6bf" font-size="16" font-family="Segoe UI,Arial,sans-serif" text-anchor="end" font-weight="400">TP  |  spread $0.25</text>
<rect x="82" y="112" width="1398" height="606" fill="#0c1421" stroke="#25344a"/>
<line x1="82" y1="112.0" x2="1480" y2="112.0" stroke="#233047" stroke-width="1"/>
<text x="1492.0" y="117.0" fill="#8799b0" font-size="13" font-family="Segoe UI,Arial,sans-serif" text-anchor="start" font-weight="400">4,315.74</text>
<line x1="82" y1="233.2" x2="1480" y2="233.2" stroke="#233047" stroke-width="1"/>
<text x="1492.0" y="238.2" fill="#8799b0" font-size="13" font-family="Segoe UI,Arial,sans-serif" text-anchor="start" font-weight="400">4,290.61</text>
<line x1="82" y1="354.4" x2="1480" y2="354.4" stroke="#233047" stroke-width="1"/>
<text x="1492.0" y="359.4" fill="#8799b0" font-size="13" font-family="Segoe UI,Arial,sans-serif" text-anchor="start" font-weight="400">4,265.48</text>
<line x1="82" y1="475.6" x2="1480" y2="475.6" stroke="#233047" stroke-width="1"/>
<text x="1492.0" y="480.6" fill="#8799b0" font-size="13" font-family="Segoe UI,Arial,sans-serif" text-anchor="start" font-weight="400">4,240.35</text>
<line x1="82" y1="596.8" x2="1480" y2="596.8" stroke="#233047" stroke-width="1"/>
<text x="1492.0" y="601.8" fill="#8799b0" font-size="13" font-family="Segoe UI,Arial,sans-serif" text-anchor="start" font-weight="400">4,215.22</text>
<line x1="82" y1="718.0" x2="1480" y2="718.0" stroke="#233047" stroke-width="1"/>
<text x="1492.0" y="723.0" fill="#8799b0" font-size="13" font-family="Segoe UI,Arial,sans-serif" text-anchor="start" font-weight="400">4,190.09</text>
<rect x="844.5" y="112" width="31.8" height="606" fill="#f0bd4e" fill-opacity="0.18"/>
<text x="867.4" y="133.0" fill="#f0bd4e" font-size="13" font-family="Segoe UI,Arial,sans-serif" text-anchor="start" font-weight="400">WEEKLY REOPEN</text>
<line x1="97.9" y1="601.3" x2="97.9" y2="608.4" stroke="#ff6078" stroke-width="1"/>
<rect x="94.4" y="602.3" width="7.0" height="5.9" fill="#ff6078"/>
<line x1="129.7" y1="606.4" x2="129.7" y2="608.6" stroke="#25c99a" stroke-width="1"/>
<rect x="126.2" y="607.6" width="7.0" height="1.2" fill="#25c99a"/>
<line x1="161.4" y1="604.5" x2="161.4" y2="607.6" stroke="#25c99a" stroke-width="1"/>
<rect x="157.9" y="605.1" width="7.0" height="2.6" fill="#25c99a"/>
<line x1="193.2" y1="603.6" x2="193.2" y2="606.2" stroke="#25c99a" stroke-width="1"/>
<rect x="189.7" y="603.6" width="7.0" height="1.4" fill="#25c99a"/>
<line x1="225.0" y1="603.0" x2="225.0" y2="603.6" stroke="#25c99a" stroke-width="1"/>
<rect x="221.5" y="603.1" width="7.0" height="1.2" fill="#25c99a"/>
<line x1="256.8" y1="602.7" x2="256.8" y2="609.5" stroke="#ff6078" stroke-width="1"/>
<rect x="253.2" y="603.1" width="7.0" height="1.7" fill="#ff6078"/>
<line x1="288.5" y1="600.4" x2="288.5" y2="605.0" stroke="#25c99a" stroke-width="1"/>
<rect x="285.0" y="601.5" width="7.0" height="3.3" fill="#25c99a"/>
<line x1="320.3" y1="600.3" x2="320.3" y2="602.3" stroke="#ff6078" stroke-width="1"/>
<rect x="316.8" y="601.5" width="7.0" height="1.2" fill="#ff6078"/>
<line x1="352.1" y1="602.0" x2="352.1" y2="604.4" stroke="#ff6078" stroke-width="1"/>
<rect x="348.6" y="602.0" width="7.0" height="1.2" fill="#ff6078"/>
<line x1="383.8" y1="601.9" x2="383.8" y2="606.1" stroke="#ff6078" stroke-width="1"/>
<rect x="380.3" y="602.4" width="7.0" height="3.7" fill="#ff6078"/>
<line x1="415.6" y1="604.6" x2="415.6" y2="607.1" stroke="#25c99a" stroke-width="1"/>
<rect x="412.1" y="604.6" width="7.0" height="1.5" fill="#25c99a"/>
<line x1="447.4" y1="603.3" x2="447.4" y2="607.1" stroke="#ff6078" stroke-width="1"/>
<rect x="443.9" y="604.6" width="7.0" height="2.1" fill="#ff6078"/>
<line x1="479.2" y1="604.1" x2="479.2" y2="607.4" stroke="#25c99a" stroke-width="1"/>
<rect x="475.7" y="604.8" width="7.0" height="1.9" fill="#25c99a"/>
<line x1="510.9" y1="603.5" x2="510.9" y2="607.6" stroke="#25c99a" stroke-width="1"/>
<rect x="507.4" y="603.5" width="7.0" height="1.3" fill="#25c99a"/>
<line x1="542.7" y1="602.1" x2="542.7" y2="609.6" stroke="#ff6078" stroke-width="1"/>
<rect x="539.2" y="603.3" width="7.0" height="4.4" fill="#ff6078"/>
<line x1="574.5" y1="601.9" x2="574.5" y2="607.7" stroke="#25c99a" stroke-width="1"/>
<rect x="571.0" y="601.9" width="7.0" height="5.8" fill="#25c99a"/>
<line x1="606.2" y1="598.0" x2="606.2" y2="603.2" stroke="#ff6078" stroke-width="1"/>
<rect x="602.8" y="601.9" width="7.0" height="1.2" fill="#ff6078"/>
<line x1="638.0" y1="599.9" x2="638.0" y2="603.5" stroke="#ff6078" stroke-width="1"/>
<rect x="634.5" y="601.9" width="7.0" height="1.4" fill="#ff6078"/>
<line x1="669.8" y1="596.3" x2="669.8" y2="603.3" stroke="#25c99a" stroke-width="1"/>
<rect x="666.3" y="597.7" width="7.0" height="5.6" fill="#25c99a"/>
<line x1="701.6" y1="587.3" x2="701.6" y2="596.9" stroke="#25c99a" stroke-width="1"/>
<rect x="698.1" y="591.8" width="7.0" height="5.2" fill="#25c99a"/>
<line x1="733.3" y1="583.6" x2="733.3" y2="591.8" stroke="#25c99a" stroke-width="1"/>
<rect x="729.8" y="583.7" width="7.0" height="8.1" fill="#25c99a"/>
<line x1="765.1" y1="583.4" x2="765.1" y2="586.4" stroke="#ff6078" stroke-width="1"/>
<rect x="761.6" y="583.7" width="7.0" height="1.6" fill="#ff6078"/>
<line x1="796.9" y1="584.9" x2="796.9" y2="590.1" stroke="#ff6078" stroke-width="1"/>
<rect x="793.4" y="585.3" width="7.0" height="4.7" fill="#ff6078"/>
<line x1="828.7" y1="585.2" x2="828.7" y2="591.6" stroke="#25c99a" stroke-width="1"/>
<rect x="825.2" y="588.2" width="7.0" height="2.8" fill="#25c99a"/>
<line x1="860.4" y1="311.8" x2="860.4" y2="365.5" stroke="#25c99a" stroke-width="1"/>
<rect x="856.9" y="334.6" width="7.0" height="3.6" fill="#25c99a"/>
<line x1="892.2" y1="296.1" x2="892.2" y2="360.7" stroke="#25c99a" stroke-width="1"/>
<rect x="888.7" y="339.0" width="7.0" height="2.7" fill="#25c99a"/>
<line x1="924.0" y1="245.6" x2="924.0" y2="341.2" stroke="#25c99a" stroke-width="1"/>
<rect x="920.5" y="245.9" width="7.0" height="92.9" fill="#25c99a"/>
<line x1="955.8" y1="196.9" x2="955.8" y2="263.9" stroke="#25c99a" stroke-width="1"/>
<rect x="952.2" y="206.5" width="7.0" height="45.5" fill="#25c99a"/>
<line x1="987.5" y1="176.8" x2="987.5" y2="211.1" stroke="#25c99a" stroke-width="1"/>
<rect x="984.0" y="183.3" width="7.0" height="24.2" fill="#25c99a"/>
<line x1="1019.3" y1="183.3" x2="1019.3" y2="228.4" stroke="#ff6078" stroke-width="1"/>
<rect x="1015.8" y="183.3" width="7.0" height="11.1" fill="#ff6078"/>
<line x1="1051.1" y1="166.6" x2="1051.1" y2="203.9" stroke="#25c99a" stroke-width="1"/>
<rect x="1047.6" y="181.6" width="7.0" height="12.8" fill="#25c99a"/>
<line x1="1082.8" y1="158.5" x2="1082.8" y2="195.4" stroke="#ff6078" stroke-width="1"/>
<rect x="1079.3" y="181.5" width="7.0" height="1.4" fill="#ff6078"/>
<line x1="1114.6" y1="151.9" x2="1114.6" y2="185.7" stroke="#25c99a" stroke-width="1"/>
<rect x="1111.1" y="161.1" width="7.0" height="21.8" fill="#25c99a"/>
<line x1="1146.4" y1="144.5" x2="1146.4" y2="167.5" stroke="#25c99a" stroke-width="1"/>
<rect x="1142.9" y="155.6" width="7.0" height="4.1" fill="#25c99a"/>
<line x1="1178.2" y1="156.6" x2="1178.2" y2="194.6" stroke="#ff6078" stroke-width="1"/>
<rect x="1174.7" y="156.6" width="7.0" height="8.2" fill="#ff6078"/>
<line x1="1209.9" y1="161.3" x2="1209.9" y2="180.4" stroke="#ff6078" stroke-width="1"/>
<rect x="1206.4" y="164.8" width="7.0" height="14.2" fill="#ff6078"/>
<line x1="1241.7" y1="164.4" x2="1241.7" y2="195.1" stroke="#ff6078" stroke-width="1"/>
<rect x="1238.2" y="179.0" width="7.0" height="9.1" fill="#ff6078"/>
<line x1="1273.5" y1="175.3" x2="1273.5" y2="195.9" stroke="#25c99a" stroke-width="1"/>
<rect x="1270.0" y="187.1" width="7.0" height="1.2" fill="#25c99a"/>
<line x1="1305.2" y1="187.1" x2="1305.2" y2="210.6" stroke="#ff6078" stroke-width="1"/>
<rect x="1301.8" y="187.1" width="7.0" height="2.3" fill="#ff6078"/>
<line x1="1337.0" y1="173.6" x2="1337.0" y2="201.1" stroke="#ff6078" stroke-width="1"/>
<rect x="1333.5" y="189.4" width="7.0" height="8.6" fill="#ff6078"/>
<line x1="1368.8" y1="177.2" x2="1368.8" y2="199.2" stroke="#25c99a" stroke-width="1"/>
<rect x="1365.3" y="183.2" width="7.0" height="15.9" fill="#25c99a"/>
<line x1="1400.6" y1="177.6" x2="1400.6" y2="197.1" stroke="#ff6078" stroke-width="1"/>
<rect x="1397.1" y="183.0" width="7.0" height="4.3" fill="#ff6078"/>
<line x1="1432.3" y1="166.9" x2="1432.3" y2="187.8" stroke="#25c99a" stroke-width="1"/>
<rect x="1428.8" y="168.0" width="7.0" height="19.3" fill="#25c99a"/>
<line x1="1464.1" y1="161.1" x2="1464.1" y2="171.1" stroke="#25c99a" stroke-width="1"/>
<rect x="1460.6" y="162.0" width="7.0" height="6.0" fill="#25c99a"/>
<line x1="701.6" y1="589.1" x2="1480" y2="589.1" stroke="#6da9ff" stroke-width="1.5" stroke-dasharray="4 4"/>
<text x="1473.0" y="584.1" fill="#6da9ff" font-size="12" font-family="Segoe UI,Arial,sans-serif" text-anchor="end" font-weight="600">PENDING 4,216.82</text>
<line x1="701.6" y1="589.1" x2="1480" y2="589.1" stroke="#42d9e8" stroke-width="1.5"/>
<text x="1473.0" y="584.1" fill="#42d9e8" font-size="12" font-family="Segoe UI,Arial,sans-serif" text-anchor="end" font-weight="600">FILL 4,216.82</text>
<line x1="701.6" y1="685.5" x2="1480" y2="685.5" stroke="#ff6078" stroke-width="1.5"/>
<text x="1473.0" y="680.5" fill="#ff6078" font-size="12" font-family="Segoe UI,Arial,sans-serif" text-anchor="end" font-weight="600">SL 4,196.82</text>
<line x1="701.6" y1="203.3" x2="1480" y2="203.3" stroke="#25c99a" stroke-width="1.5"/>
<text x="1473.0" y="198.3" fill="#25c99a" font-size="12" font-family="Segoe UI,Arial,sans-serif" text-anchor="end" font-weight="600">TP 4,296.82</text>
<line x1="701.6" y1="203.3" x2="1480" y2="203.3" stroke="#f0bd4e" stroke-width="1.5" stroke-dasharray="6 3"/>
<text x="1473.0" y="198.3" fill="#f0bd4e" font-size="12" font-family="Segoe UI,Arial,sans-serif" text-anchor="end" font-weight="600">EXIT 4,296.82</text>
<line x1="701.6" y1="112" x2="701.6" y2="718" stroke="#42d9e8" stroke-width="2"/>
<line x1="955.8" y1="112" x2="955.8" y2="718" stroke="#f0bd4e" stroke-width="2"/>
<text x="706.6" y="706.0" fill="#42d9e8" font-size="12" font-family="Segoe UI,Arial,sans-serif" text-anchor="start" font-weight="400">ENTRY</text>
<text x="950.8" y="706.0" fill="#f0bd4e" font-size="12" font-family="Segoe UI,Arial,sans-serif" text-anchor="end" font-weight="400">EXIT</text>
<text x="97.9" y="746.0" fill="#8799b0" font-size="12" font-family="Segoe UI,Arial,sans-serif" text-anchor="middle" font-weight="400">Jun 12 23:31</text>
<text x="320.3" y="746.0" fill="#8799b0" font-size="12" font-family="Segoe UI,Arial,sans-serif" text-anchor="middle" font-weight="400">Jun 12 23:38</text>
<text x="542.7" y="746.0" fill="#8799b0" font-size="12" font-family="Segoe UI,Arial,sans-serif" text-anchor="middle" font-weight="400">Jun 12 23:45</text>
<text x="796.9" y="746.0" fill="#8799b0" font-size="12" font-family="Segoe UI,Arial,sans-serif" text-anchor="middle" font-weight="400">Jun 12 23:53</text>
<text x="1019.3" y="746.0" fill="#8799b0" font-size="12" font-family="Segoe UI,Arial,sans-serif" text-anchor="middle" font-weight="400">Jun 15 01:05</text>
<text x="1241.7" y="746.0" fill="#8799b0" font-size="12" font-family="Segoe UI,Arial,sans-serif" text-anchor="middle" font-weight="400">Jun 15 01:12</text>
<text x="1464.1" y="746.0" fill="#8799b0" font-size="12" font-family="Segoe UI,Arial,sans-serif" text-anchor="middle" font-weight="400">Jun 15 01:19</text>
<text x="82.0" y="790.0" fill="#92a6bf" font-size="15" font-family="Segoe UI,Arial,sans-serif" text-anchor="start" font-weight="400">Offset $1.5  |  lead 5m  |  SL $20  |  RR 4:1  |  max hold 720 market minutes</text>
</svg>