<svg xmlns="http://www.w3.org/2000/svg" viewBox="0 0 1600 820" role="img" aria-label="Trade 15 chart">
<rect width="1600" height="820" fill="#080d16"/>
<text x="40.0" y="42.0" fill="#dce7f7" font-size="28" font-family="Segoe UI,Arial,sans-serif" text-anchor="start" font-weight="600">Trade 15 / SELL / FRIDAY FILL</text>
<text x="40.0" y="76.0" fill="#92a6bf" font-size="16" font-family="Segoe UI,Arial,sans-serif" text-anchor="start" font-weight="400">Entry 2025-12-12 23:50 UTC  |  Exit 2025-12-15 03:39 UTC</text>
<text x="1560.0" y="43.0" fill="#ff647c" font-size="28" font-family="Segoe UI,Arial,sans-serif" text-anchor="end" font-weight="600">-1.000R</text>
<text x="1560.0" y="76.0" fill="#92a6bf" font-size="16" font-family="Segoe UI,Arial,sans-serif" text-anchor="end" font-weight="400">SL  |  spread $0.25</text>
<rect x="82" y="112" width="1398" height="606" fill="#0c1421" stroke="#25344a"/>
<line x1="82" y1="112.0" x2="1480" y2="112.0" stroke="#233047" stroke-width="1"/>
<text x="1492.0" y="117.0" fill="#8799b0" font-size="13" font-family="Segoe UI,Arial,sans-serif" text-anchor="start" font-weight="400">4,331.92</text>
<line x1="82" y1="233.2" x2="1480" y2="233.2" stroke="#233047" stroke-width="1"/>
<text x="1492.0" y="238.2" fill="#8799b0" font-size="13" font-family="Segoe UI,Arial,sans-serif" text-anchor="start" font-weight="400">4,308.53</text>
<line x1="82" y1="354.4" x2="1480" y2="354.4" stroke="#233047" stroke-width="1"/>
<text x="1492.0" y="359.4" fill="#8799b0" font-size="13" font-family="Segoe UI,Arial,sans-serif" text-anchor="start" font-weight="400">4,285.14</text>
<line x1="82" y1="475.6" x2="1480" y2="475.6" stroke="#233047" stroke-width="1"/>
<text x="1492.0" y="480.6" fill="#8799b0" font-size="13" font-family="Segoe UI,Arial,sans-serif" text-anchor="start" font-weight="400">4,261.74</text>
<line x1="82" y1="596.8" x2="1480" y2="596.8" stroke="#233047" stroke-width="1"/>
<text x="1492.0" y="601.8" fill="#8799b0" font-size="13" font-family="Segoe UI,Arial,sans-serif" text-anchor="start" font-weight="400">4,238.35</text>
<line x1="82" y1="718.0" x2="1480" y2="718.0" stroke="#233047" stroke-width="1"/>
<text x="1492.0" y="723.0" fill="#8799b0" font-size="13" font-family="Segoe UI,Arial,sans-serif" text-anchor="start" font-weight="400">4,214.96</text>
<rect x="249.8" y="112" width="7.0" height="606" fill="#f0bd4e" fill-opacity="0.18"/>
<text x="260.3" y="133.0" fill="#f0bd4e" font-size="13" font-family="Segoe UI,Arial,sans-serif" text-anchor="start" font-weight="400">WEEKLY REOPEN</text>
<line x1="85.5" y1="265.7" x2="85.5" y2="268.3" stroke="#ff6078" stroke-width="1"/>
<rect x="83.3" y="267.2" width="4.3" height="1.2" fill="#ff6078"/>
<line x1="92.5" y1="265.7" x2="92.5" y2="269.7" stroke="#25c99a" stroke-width="1"/>
<rect x="90.3" y="265.9" width="4.3" height="1.4" fill="#25c99a"/>
<line x1="99.5" y1="263.2" x2="99.5" y2="265.9" stroke="#25c99a" stroke-width="1"/>
<rect x="97.3" y="263.5" width="4.3" height="2.4" fill="#25c99a"/>
<line x1="106.5" y1="263.3" x2="106.5" y2="266.2" stroke="#ff6078" stroke-width="1"/>
<rect x="104.3" y="263.5" width="4.3" height="1.2" fill="#ff6078"/>
<line x1="113.5" y1="262.8" x2="113.5" y2="264.7" stroke="#25c99a" stroke-width="1"/>
<rect x="111.3" y="263.1" width="4.3" height="1.3" fill="#25c99a"/>
<line x1="120.4" y1="261.2" x2="120.4" y2="264.5" stroke="#25c99a" stroke-width="1"/>
<rect x="118.3" y="262.0" width="4.3" height="1.2" fill="#25c99a"/>
<line x1="127.4" y1="261.6" x2="127.4" y2="263.1" stroke="#ff6078" stroke-width="1"/>
<rect x="125.3" y="262.0" width="4.3" height="1.2" fill="#ff6078"/>
<line x1="134.4" y1="260.2" x2="134.4" y2="263.6" stroke="#ff6078" stroke-width="1"/>
<rect x="132.3" y="262.0" width="4.3" height="1.2" fill="#ff6078"/>
<line x1="141.4" y1="256.3" x2="141.4" y2="262.5" stroke="#25c99a" stroke-width="1"/>
<rect x="139.2" y="256.4" width="4.3" height="6.0" fill="#25c99a"/>
<line x1="148.4" y1="255.8" x2="148.4" y2="258.9" stroke="#ff6078" stroke-width="1"/>
<rect x="146.2" y="256.4" width="4.3" height="1.6" fill="#ff6078"/>
<line x1="155.4" y1="257.4" x2="155.4" y2="258.9" stroke="#25c99a" stroke-width="1"/>
<rect x="153.2" y="257.7" width="4.3" height="1.2" fill="#25c99a"/>
<line x1="162.4" y1="257.4" x2="162.4" y2="263.4" stroke="#ff6078" stroke-width="1"/>
<rect x="160.2" y="257.7" width="4.3" height="5.1" fill="#ff6078"/>
<line x1="169.4" y1="262.2" x2="169.4" y2="266.8" stroke="#ff6078" stroke-width="1"/>
<rect x="167.2" y="262.8" width="4.3" height="3.4" fill="#ff6078"/>
<line x1="176.4" y1="265.7" x2="176.4" y2="271.9" stroke="#ff6078" stroke-width="1"/>
<rect x="174.2" y="266.2" width="4.3" height="2.7" fill="#ff6078"/>
<line x1="183.4" y1="263.4" x2="183.4" y2="271.5" stroke="#25c99a" stroke-width="1"/>
<rect x="181.2" y="263.5" width="4.3" height="5.9" fill="#25c99a"/>
<line x1="190.3" y1="260.9" x2="190.3" y2="264.1" stroke="#25c99a" stroke-width="1"/>
<rect x="188.2" y="263.0" width="4.3" height="1.2" fill="#25c99a"/>
<line x1="197.3" y1="263.0" x2="197.3" y2="265.0" stroke="#ff6078" stroke-width="1"/>
<rect x="195.2" y="263.0" width="4.3" height="2.0" fill="#ff6078"/>
<line x1="204.3" y1="260.1" x2="204.3" y2="265.2" stroke="#25c99a" stroke-width="1"/>
<rect x="202.2" y="260.1" width="4.3" height="4.9" fill="#25c99a"/>
<line x1="211.3" y1="259.4" x2="211.3" y2="263.2" stroke="#ff6078" stroke-width="1"/>
<rect x="209.1" y="260.1" width="4.3" height="2.8" fill="#ff6078"/>
<line x1="218.3" y1="263.0" x2="218.3" y2="271.9" stroke="#ff6078" stroke-width="1"/>
<rect x="216.1" y="263.0" width="4.3" height="8.7" fill="#ff6078"/>
<line x1="225.3" y1="265.5" x2="225.3" y2="271.7" stroke="#25c99a" stroke-width="1"/>
<rect x="223.1" y="268.7" width="4.3" height="3.0" fill="#25c99a"/>
<line x1="232.3" y1="268.4" x2="232.3" y2="275.2" stroke="#ff6078" stroke-width="1"/>
<rect x="230.1" y="268.7" width="4.3" height="4.3" fill="#ff6078"/>
<line x1="239.3" y1="272.7" x2="239.3" y2="281.8" stroke="#ff6078" stroke-width="1"/>
<rect x="237.1" y="273.0" width="4.3" height="2.6" fill="#ff6078"/>
<line x1="246.3" y1="275.2" x2="246.3" y2="278.0" stroke="#ff6078" stroke-width="1"/>
<rect x="244.1" y="275.6" width="4.3" height="1.5" fill="#ff6078"/>
<line x1="253.3" y1="276.4" x2="253.3" y2="313.2" stroke="#ff6078" stroke-width="1"/>
<rect x="251.1" y="284.7" width="4.3" height="14.8" fill="#ff6078"/>
<line x1="260.2" y1="278.4" x2="260.2" y2="306.3" stroke="#25c99a" stroke-width="1"/>
<rect x="258.1" y="280.7" width="4.3" height="23.3" fill="#25c99a"/>
<line x1="267.2" y1="279.3" x2="267.2" y2="291.8" stroke="#ff6078" stroke-width="1"/>
<rect x="265.1" y="280.7" width="4.3" height="5.8" fill="#ff6078"/>
<line x1="274.2" y1="267.6" x2="274.2" y2="296.2" stroke="#25c99a" stroke-width="1"/>
<rect x="272.1" y="270.4" width="4.3" height="16.2" fill="#25c99a"/>
<line x1="281.2" y1="260.2" x2="281.2" y2="275.4" stroke="#25c99a" stroke-width="1"/>
<rect x="279.0" y="260.2" width="4.3" height="10.9" fill="#25c99a"/>
<line x1="288.2" y1="252.7" x2="288.2" y2="260.2" stroke="#25c99a" stroke-width="1"/>
<rect x="286.0" y="256.4" width="4.3" height="3.7" fill="#25c99a"/>
<line x1="295.2" y1="253.7" x2="295.2" y2="257.8" stroke="#25c99a" stroke-width="1"/>
<rect x="293.0" y="255.2" width="4.3" height="1.2" fill="#25c99a"/>
<line x1="302.2" y1="244.3" x2="302.2" y2="255.2" stroke="#25c99a" stroke-width="1"/>
<rect x="300.0" y="246.5" width="4.3" height="8.7" fill="#25c99a"/>
<line x1="309.2" y1="241.1" x2="309.2" y2="251.3" stroke="#25c99a" stroke-width="1"/>
<rect x="307.0" y="242.3" width="4.3" height="4.2" fill="#25c99a"/>
<line x1="316.2" y1="237.5" x2="316.2" y2="243.8" stroke="#25c99a" stroke-width="1"/>
<rect x="314.0" y="237.8" width="4.3" height="4.5" fill="#25c99a"/>
<line x1="323.2" y1="237.8" x2="323.2" y2="252.4" stroke="#ff6078" stroke-width="1"/>
<rect x="321.0" y="237.8" width="4.3" height="12.1" fill="#ff6078"/>
<line x1="330.1" y1="248.5" x2="330.1" y2="263.4" stroke="#ff6078" stroke-width="1"/>
<rect x="328.0" y="249.9" width="4.3" height="12.4" fill="#ff6078"/>
<line x1="337.1" y1="245.2" x2="337.1" y2="264.5" stroke="#25c99a" stroke-width="1"/>
<rect x="335.0" y="248.0" width="4.3" height="14.5" fill="#25c99a"/>
<line x1="344.1" y1="244.0" x2="344.1" y2="253.7" stroke="#25c99a" stroke-width="1"/>
<rect x="342.0" y="245.1" width="4.3" height="2.9" fill="#25c99a"/>
<line x1="351.1" y1="244.5" x2="351.1" y2="262.2" stroke="#ff6078" stroke-width="1"/>
<rect x="348.9" y="245.1" width="4.3" height="16.9" fill="#ff6078"/>
<line x1="358.1" y1="255.4" x2="358.1" y2="262.0" stroke="#25c99a" stroke-width="1"/>
<rect x="355.9" y="260.9" width="4.3" height="1.2" fill="#25c99a"/>
<line x1="365.1" y1="248.0" x2="365.1" y2="261.0" stroke="#25c99a" stroke-width="1"/>
<rect x="362.9" y="254.9" width="4.3" height="6.1" fill="#25c99a"/>
<line x1="372.1" y1="253.8" x2="372.1" y2="262.3" stroke="#ff6078" stroke-width="1"/>
<rect x="369.9" y="254.9" width="4.3" height="6.3" fill="#ff6078"/>
<line x1="379.1" y1="254.4" x2="379.1" y2="262.6" stroke="#25c99a" stroke-width="1"/>
<rect x="376.9" y="257.4" width="4.3" height="3.4" fill="#25c99a"/>
<line x1="386.1" y1="253.7" x2="386.1" y2="260.6" stroke="#25c99a" stroke-width="1"/>
<rect x="383.9" y="254.5" width="4.3" height="3.1" fill="#25c99a"/>
<line x1="393.1" y1="253.8" x2="393.1" y2="259.2" stroke="#ff6078" stroke-width="1"/>
<rect x="390.9" y="254.5" width="4.3" height="2.4" fill="#ff6078"/>
<line x1="400.0" y1="248.2" x2="400.0" y2="257.1" stroke="#25c99a" stroke-width="1"/>
<rect x="397.9" y="248.3" width="4.3" height="8.5" fill="#25c99a"/>
<line x1="407.0" y1="244.5" x2="407.0" y2="254.7" stroke="#ff6078" stroke-width="1"/>
<rect x="404.9" y="248.3" width="4.3" height="5.5" fill="#ff6078"/>
<line x1="414.0" y1="252.4" x2="414.0" y2="257.0" stroke="#ff6078" stroke-width="1"/>
<rect x="411.9" y="253.8" width="4.3" height="1.5" fill="#ff6078"/>
<line x1="421.0" y1="248.7" x2="421.0" y2="255.2" stroke="#25c99a" stroke-width="1"/>
<rect x="418.8" y="249.2" width="4.3" height="6.0" fill="#25c99a"/>
<line x1="428.0" y1="246.6" x2="428.0" y2="252.5" stroke="#25c99a" stroke-width="1"/>
<rect x="425.8" y="246.9" width="4.3" height="2.3" fill="#25c99a"/>
<line x1="435.0" y1="246.8" x2="435.0" y2="254.9" stroke="#ff6078" stroke-width="1"/>
<rect x="432.8" y="246.9" width="4.3" height="6.0" fill="#ff6078"/>
<line x1="442.0" y1="248.6" x2="442.0" y2="254.2" stroke="#25c99a" stroke-width="1"/>
<rect x="439.8" y="251.5" width="4.3" height="1.4" fill="#25c99a"/>
<line x1="449.0" y1="244.2" x2="449.0" y2="253.5" stroke="#25c99a" stroke-width="1"/>
<rect x="446.8" y="245.7" width="4.3" height="5.9" fill="#25c99a"/>
<line x1="456.0" y1="243.7" x2="456.0" y2="251.4" stroke="#ff6078" stroke-width="1"/>
<rect x="453.8" y="245.8" width="4.3" height="5.6" fill="#ff6078"/>
<line x1="463.0" y1="239.5" x2="463.0" y2="251.4" stroke="#25c99a" stroke-width="1"/>
<rect x="460.8" y="242.2" width="4.3" height="9.2" fill="#25c99a"/>
<line x1="469.9" y1="239.1" x2="469.9" y2="249.0" stroke="#ff6078" stroke-width="1"/>
<rect x="467.8" y="242.2" width="4.3" height="2.4" fill="#ff6078"/>
<line x1="476.9" y1="240.6" x2="476.9" y2="244.6" stroke="#25c99a" stroke-width="1"/>
<rect x="474.8" y="242.3" width="4.3" height="2.3" fill="#25c99a"/>
<line x1="483.9" y1="240.4" x2="483.9" y2="244.9" stroke="#25c99a" stroke-width="1"/>
<rect x="481.8" y="241.3" width="4.3" height="1.2" fill="#25c99a"/>
<line x1="490.9" y1="241.0" x2="490.9" y2="247.7" stroke="#ff6078" stroke-width="1"/>
<rect x="488.7" y="241.3" width="4.3" height="2.8" fill="#ff6078"/>
<line x1="497.9" y1="238.0" x2="497.9" y2="244.6" stroke="#25c99a" stroke-width="1"/>
<rect x="495.7" y="239.9" width="4.3" height="4.1" fill="#25c99a"/>
<line x1="504.9" y1="238.3" x2="504.9" y2="243.0" stroke="#25c99a" stroke-width="1"/>
<rect x="502.7" y="239.0" width="4.3" height="1.2" fill="#25c99a"/>
<line x1="511.9" y1="238.0" x2="511.9" y2="241.9" stroke="#25c99a" stroke-width="1"/>
<rect x="509.7" y="238.4" width="4.3" height="1.2" fill="#25c99a"/>
<line x1="518.9" y1="232.9" x2="518.9" y2="248.7" stroke="#ff6078" stroke-width="1"/>
<rect x="516.7" y="238.4" width="4.3" height="10.0" fill="#ff6078"/>
<line x1="525.9" y1="247.0" x2="525.9" y2="257.3" stroke="#ff6078" stroke-width="1"/>
<rect x="523.7" y="248.3" width="4.3" height="7.8" fill="#ff6078"/>
<line x1="532.9" y1="244.9" x2="532.9" y2="256.2" stroke="#25c99a" stroke-width="1"/>
<rect x="530.7" y="245.1" width="4.3" height="11.1" fill="#25c99a"/>
<line x1="539.8" y1="244.8" x2="539.8" y2="248.6" stroke="#ff6078" stroke-width="1"/>
<rect x="537.7" y="245.1" width="4.3" height="1.2" fill="#ff6078"/>
<line x1="546.8" y1="244.8" x2="546.8" y2="249.4" stroke="#ff6078" stroke-width="1"/>
<rect x="544.7" y="246.0" width="4.3" height="1.2" fill="#ff6078"/>
<line x1="553.8" y1="244.6" x2="553.8" y2="248.0" stroke="#25c99a" stroke-width="1"/>
<rect x="551.7" y="246.2" width="4.3" height="1.8" fill="#25c99a"/>
<line x1="560.8" y1="242.3" x2="560.8" y2="246.4" stroke="#25c99a" stroke-width="1"/>
<rect x="558.6" y="245.9" width="4.3" height="1.2" fill="#25c99a"/>
<line x1="567.8" y1="244.4" x2="567.8" y2="251.4" stroke="#25c99a" stroke-width="1"/>
<rect x="565.6" y="244.4" width="4.3" height="1.5" fill="#25c99a"/>
<line x1="574.8" y1="243.5" x2="574.8" y2="246.9" stroke="#ff6078" stroke-width="1"/>
<rect x="572.6" y="244.4" width="4.3" height="1.2" fill="#ff6078"/>
<line x1="581.8" y1="243.9" x2="581.8" y2="250.8" stroke="#ff6078" stroke-width="1"/>
<rect x="579.6" y="244.7" width="4.3" height="5.6" fill="#ff6078"/>
<line x1="588.8" y1="250.1" x2="588.8" y2="254.3" stroke="#ff6078" stroke-width="1"/>
<rect x="586.6" y="250.3" width="4.3" height="2.2" fill="#ff6078"/>
<line x1="595.8" y1="252.5" x2="595.8" y2="260.5" stroke="#ff6078" stroke-width="1"/>
<rect x="593.6" y="252.6" width="4.3" height="6.3" fill="#ff6078"/>
<line x1="602.8" y1="253.8" x2="602.8" y2="260.2" stroke="#25c99a" stroke-width="1"/>
<rect x="600.6" y="255.0" width="4.3" height="3.9" fill="#25c99a"/>
<line x1="609.7" y1="244.5" x2="609.7" y2="255.0" stroke="#25c99a" stroke-width="1"/>
<rect x="607.6" y="249.4" width="4.3" height="5.5" fill="#25c99a"/>
<line x1="616.7" y1="244.7" x2="616.7" y2="250.4" stroke="#ff6078" stroke-width="1"/>
<rect x="614.6" y="249.4" width="4.3" height="1.2" fill="#ff6078"/>
<line x1="623.7" y1="245.1" x2="623.7" y2="251.6" stroke="#25c99a" stroke-width="1"/>
<rect x="621.6" y="249.4" width="4.3" height="1.2" fill="#25c99a"/>
<line x1="630.7" y1="246.2" x2="630.7" y2="250.6" stroke="#25c99a" stroke-width="1"/>
<rect x="628.5" y="247.0" width="4.3" height="2.5" fill="#25c99a"/>
<line x1="637.7" y1="244.0" x2="637.7" y2="250.3" stroke="#25c99a" stroke-width="1"/>
<rect x="635.5" y="244.0" width="4.3" height="3.0" fill="#25c99a"/>
<line x1="644.7" y1="242.4" x2="644.7" y2="251.4" stroke="#ff6078" stroke-width="1"/>
<rect x="642.5" y="244.0" width="4.3" height="5.8" fill="#ff6078"/>
<line x1="651.7" y1="249.8" x2="651.7" y2="262.3" stroke="#ff6078" stroke-width="1"/>
<rect x="649.5" y="249.8" width="4.3" height="11.5" fill="#ff6078"/>
<line x1="658.7" y1="261.2" x2="658.7" y2="268.2" stroke="#ff6078" stroke-width="1"/>
<rect x="656.5" y="261.3" width="4.3" height="3.0" fill="#ff6078"/>
<line x1="665.7" y1="263.7" x2="665.7" y2="269.5" stroke="#ff6078" stroke-width="1"/>
<rect x="663.5" y="264.3" width="4.3" height="1.2" fill="#ff6078"/>
<line x1="672.7" y1="261.4" x2="672.7" y2="273.5" stroke="#25c99a" stroke-width="1"/>
<rect x="670.5" y="262.0" width="4.3" height="2.9" fill="#25c99a"/>
<line x1="679.6" y1="245.0" x2="679.6" y2="262.0" stroke="#25c99a" stroke-width="1"/>
<rect x="677.5" y="248.8" width="4.3" height="13.2" fill="#25c99a"/>
<line x1="686.6" y1="242.7" x2="686.6" y2="249.4" stroke="#25c99a" stroke-width="1"/>
<rect x="684.5" y="244.9" width="4.3" height="3.9" fill="#25c99a"/>
<line x1="693.6" y1="244.1" x2="693.6" y2="251.8" stroke="#ff6078" stroke-width="1"/>
<rect x="691.5" y="244.9" width="4.3" height="5.3" fill="#ff6078"/>
<line x1="700.6" y1="249.2" x2="700.6" y2="261.8" stroke="#ff6078" stroke-width="1"/>
<rect x="698.4" y="250.2" width="4.3" height="11.0" fill="#ff6078"/>
<line x1="707.6" y1="254.4" x2="707.6" y2="261.9" stroke="#ff6078" stroke-width="1"/>
<rect x="705.4" y="261.3" width="4.3" height="1.2" fill="#ff6078"/>
<line x1="714.6" y1="258.5" x2="714.6" y2="263.0" stroke="#25c99a" stroke-width="1"/>
<rect x="712.4" y="261.5" width="4.3" height="1.2" fill="#25c99a"/>
<line x1="721.6" y1="260.5" x2="721.6" y2="270.6" stroke="#ff6078" stroke-width="1"/>
<rect x="719.4" y="261.5" width="4.3" height="9.0" fill="#ff6078"/>
<line x1="728.6" y1="270.4" x2="728.6" y2="275.0" stroke="#ff6078" stroke-width="1"/>
<rect x="726.4" y="270.4" width="4.3" height="3.5" fill="#ff6078"/>
<line x1="735.6" y1="270.7" x2="735.6" y2="276.9" stroke="#ff6078" stroke-width="1"/>
<rect x="733.4" y="273.3" width="4.3" height="2.1" fill="#ff6078"/>
<line x1="742.6" y1="269.1" x2="742.6" y2="276.4" stroke="#25c99a" stroke-width="1"/>
<rect x="740.4" y="271.8" width="4.3" height="3.5" fill="#25c99a"/>
<line x1="749.5" y1="265.8" x2="749.5" y2="271.9" stroke="#25c99a" stroke-width="1"/>
<rect x="747.4" y="266.5" width="4.3" height="5.3" fill="#25c99a"/>
<line x1="756.5" y1="264.3" x2="756.5" y2="266.6" stroke="#25c99a" stroke-width="1"/>
<rect x="754.4" y="264.4" width="4.3" height="2.1" fill="#25c99a"/>
<line x1="763.5" y1="262.5" x2="763.5" y2="265.8" stroke="#25c99a" stroke-width="1"/>
<rect x="761.4" y="263.2" width="4.3" height="1.2" fill="#25c99a"/>
<line x1="770.5" y1="255.6" x2="770.5" y2="263.2" stroke="#25c99a" stroke-width="1"/>
<rect x="768.3" y="255.9" width="4.3" height="7.4" fill="#25c99a"/>
<line x1="777.5" y1="255.1" x2="777.5" y2="256.9" stroke="#ff6078" stroke-width="1"/>
<rect x="775.3" y="255.9" width="4.3" height="1.2" fill="#ff6078"/>
<line x1="784.5" y1="255.9" x2="784.5" y2="266.5" stroke="#ff6078" stroke-width="1"/>
<rect x="782.3" y="256.1" width="4.3" height="9.6" fill="#ff6078"/>
<line x1="791.5" y1="265.6" x2="791.5" y2="272.7" stroke="#ff6078" stroke-width="1"/>
<rect x="789.3" y="265.6" width="4.3" height="6.4" fill="#ff6078"/>
<line x1="798.5" y1="261.8" x2="798.5" y2="272.1" stroke="#25c99a" stroke-width="1"/>
<rect x="796.3" y="262.8" width="4.3" height="9.2" fill="#25c99a"/>
<line x1="805.5" y1="262.8" x2="805.5" y2="266.8" stroke="#ff6078" stroke-width="1"/>
<rect x="803.3" y="262.8" width="4.3" height="1.2" fill="#ff6078"/>
<line x1="812.5" y1="263.8" x2="812.5" y2="266.5" stroke="#ff6078" stroke-width="1"/>
<rect x="810.3" y="264.0" width="4.3" height="1.2" fill="#ff6078"/>
<line x1="819.4" y1="261.9" x2="819.4" y2="265.6" stroke="#ff6078" stroke-width="1"/>
<rect x="817.3" y="264.4" width="4.3" height="1.2" fill="#ff6078"/>
<line x1="826.4" y1="264.5" x2="826.4" y2="269.9" stroke="#ff6078" stroke-width="1"/>
<rect x="824.3" y="265.5" width="4.3" height="3.5" fill="#ff6078"/>
<line x1="833.4" y1="265.3" x2="833.4" y2="269.8" stroke="#25c99a" stroke-width="1"/>
<rect x="831.3" y="267.8" width="4.3" height="1.2" fill="#25c99a"/>
<line x1="840.4" y1="267.3" x2="840.4" y2="270.2" stroke="#25c99a" stroke-width="1"/>
<rect x="838.2" y="267.3" width="4.3" height="1.2" fill="#25c99a"/>
<line x1="847.4" y1="265.2" x2="847.4" y2="270.2" stroke="#ff6078" stroke-width="1"/>
<rect x="845.2" y="267.3" width="4.3" height="1.3" fill="#ff6078"/>
<line x1="854.4" y1="265.1" x2="854.4" y2="270.3" stroke="#25c99a" stroke-width="1"/>
<rect x="852.2" y="265.3" width="4.3" height="3.3" fill="#25c99a"/>
<line x1="861.4" y1="262.1" x2="861.4" y2="266.6" stroke="#25c99a" stroke-width="1"/>
<rect x="859.2" y="264.8" width="4.3" height="1.2" fill="#25c99a"/>
<line x1="868.4" y1="264.2" x2="868.4" y2="268.9" stroke="#ff6078" stroke-width="1"/>
<rect x="866.2" y="264.8" width="4.3" height="2.7" fill="#ff6078"/>
<line x1="875.4" y1="267.0" x2="875.4" y2="268.0" stroke="#25c99a" stroke-width="1"/>
<rect x="873.2" y="267.1" width="4.3" height="1.2" fill="#25c99a"/>
<line x1="882.4" y1="263.2" x2="882.4" y2="267.1" stroke="#25c99a" stroke-width="1"/>
<rect x="880.2" y="266.0" width="4.3" height="1.2" fill="#25c99a"/>
<line x1="889.3" y1="261.3" x2="889.3" y2="265.9" stroke="#25c99a" stroke-width="1"/>
<rect x="887.2" y="261.4" width="4.3" height="4.6" fill="#25c99a"/>
<line x1="896.3" y1="257.6" x2="896.3" y2="264.1" stroke="#25c99a" stroke-width="1"/>
<rect x="894.2" y="258.6" width="4.3" height="2.8" fill="#25c99a"/>
<line x1="903.3" y1="254.5" x2="903.3" y2="261.6" stroke="#ff6078" stroke-width="1"/>
<rect x="901.2" y="258.6" width="4.3" height="2.2" fill="#ff6078"/>
<line x1="910.3" y1="260.6" x2="910.3" y2="266.9" stroke="#ff6078" stroke-width="1"/>
<rect x="908.1" y="260.8" width="4.3" height="2.4" fill="#ff6078"/>
<line x1="917.3" y1="256.9" x2="917.3" y2="263.2" stroke="#25c99a" stroke-width="1"/>
<rect x="915.1" y="256.9" width="4.3" height="6.3" fill="#25c99a"/>
<line x1="924.3" y1="245.5" x2="924.3" y2="256.9" stroke="#25c99a" stroke-width="1"/>
<rect x="922.1" y="247.0" width="4.3" height="9.9" fill="#25c99a"/>
<line x1="931.3" y1="244.4" x2="931.3" y2="248.4" stroke="#25c99a" stroke-width="1"/>
<rect x="929.1" y="245.1" width="4.3" height="1.9" fill="#25c99a"/>
<line x1="938.3" y1="239.9" x2="938.3" y2="246.0" stroke="#25c99a" stroke-width="1"/>
<rect x="936.1" y="240.7" width="4.3" height="4.4" fill="#25c99a"/>
<line x1="945.3" y1="240.7" x2="945.3" y2="243.4" stroke="#ff6078" stroke-width="1"/>
<rect x="943.1" y="240.7" width="4.3" height="1.2" fill="#ff6078"/>
<line x1="952.3" y1="235.7" x2="952.3" y2="242.8" stroke="#25c99a" stroke-width="1"/>
<rect x="950.1" y="237.7" width="4.3" height="3.4" fill="#25c99a"/>
<line x1="959.2" y1="236.9" x2="959.2" y2="238.8" stroke="#25c99a" stroke-width="1"/>
<rect x="957.1" y="237.3" width="4.3" height="1.2" fill="#25c99a"/>
<line x1="966.2" y1="237.3" x2="966.2" y2="247.4" stroke="#ff6078" stroke-width="1"/>
<rect x="964.1" y="237.3" width="4.3" height="10.1" fill="#ff6078"/>
<line x1="973.2" y1="246.8" x2="973.2" y2="252.4" stroke="#ff6078" stroke-width="1"/>
<rect x="971.1" y="247.4" width="4.3" height="1.8" fill="#ff6078"/>
<line x1="980.2" y1="245.4" x2="980.2" y2="250.1" stroke="#25c99a" stroke-width="1"/>
<rect x="978.0" y="248.6" width="4.3" height="1.2" fill="#25c99a"/>
<line x1="987.2" y1="246.0" x2="987.2" y2="251.2" stroke="#25c99a" stroke-width="1"/>
<rect x="985.0" y="246.5" width="4.3" height="2.0" fill="#25c99a"/>
<line x1="994.2" y1="242.0" x2="994.2" y2="249.2" stroke="#25c99a" stroke-width="1"/>
<rect x="992.0" y="242.4" width="4.3" height="4.1" fill="#25c99a"/>
<line x1="1001.2" y1="242.2" x2="1001.2" y2="252.2" stroke="#ff6078" stroke-width="1"/>
<rect x="999.0" y="242.6" width="4.3" height="9.6" fill="#ff6078"/>
<line x1="1008.2" y1="250.5" x2="1008.2" y2="254.0" stroke="#ff6078" stroke-width="1"/>
<rect x="1006.0" y="252.2" width="4.3" height="1.2" fill="#ff6078"/>
<line x1="1015.2" y1="250.4" x2="1015.2" y2="256.5" stroke="#25c99a" stroke-width="1"/>
<rect x="1013.0" y="251.8" width="4.3" height="1.2" fill="#25c99a"/>
<line x1="1022.2" y1="251.3" x2="1022.2" y2="257.2" stroke="#ff6078" stroke-width="1"/>
<rect x="1020.0" y="251.7" width="4.3" height="1.2" fill="#ff6078"/>
<line x1="1029.1" y1="252.7" x2="1029.1" y2="259.2" stroke="#ff6078" stroke-width="1"/>
<rect x="1027.0" y="252.7" width="4.3" height="5.3" fill="#ff6078"/>
<line x1="1036.1" y1="250.9" x2="1036.1" y2="258.0" stroke="#25c99a" stroke-width="1"/>
<rect x="1034.0" y="252.1" width="4.3" height="6.0" fill="#25c99a"/>
<line x1="1043.1" y1="245.6" x2="1043.1" y2="253.4" stroke="#25c99a" stroke-width="1"/>
<rect x="1041.0" y="245.6" width="4.3" height="6.5" fill="#25c99a"/>
<line x1="1050.1" y1="243.6" x2="1050.1" y2="248.4" stroke="#ff6078" stroke-width="1"/>
<rect x="1047.9" y="245.6" width="4.3" height="1.3" fill="#ff6078"/>
<line x1="1057.1" y1="244.0" x2="1057.1" y2="247.7" stroke="#25c99a" stroke-width="1"/>
<rect x="1054.9" y="245.1" width="4.3" height="1.7" fill="#25c99a"/>
<line x1="1064.1" y1="243.5" x2="1064.1" y2="246.8" stroke="#ff6078" stroke-width="1"/>
<rect x="1061.9" y="245.1" width="4.3" height="1.2" fill="#ff6078"/>
<line x1="1071.1" y1="244.2" x2="1071.1" y2="248.4" stroke="#25c99a" stroke-width="1"/>
<rect x="1068.9" y="244.3" width="4.3" height="1.2" fill="#25c99a"/>
<line x1="1078.1" y1="244.2" x2="1078.1" y2="246.8" stroke="#25c99a" stroke-width="1"/>
<rect x="1075.9" y="244.8" width="4.3" height="1.2" fill="#25c99a"/>
<line x1="1085.1" y1="237.2" x2="1085.1" y2="246.2" stroke="#25c99a" stroke-width="1"/>
<rect x="1082.9" y="238.5" width="4.3" height="6.3" fill="#25c99a"/>
<line x1="1092.1" y1="228.9" x2="1092.1" y2="247.7" stroke="#25c99a" stroke-width="1"/>
<rect x="1089.9" y="229.7" width="4.3" height="8.8" fill="#25c99a"/>
<line x1="1099.0" y1="221.2" x2="1099.0" y2="232.9" stroke="#25c99a" stroke-width="1"/>
<rect x="1096.9" y="225.6" width="4.3" height="4.1" fill="#25c99a"/>
<line x1="1106.0" y1="213.3" x2="1106.0" y2="230.1" stroke="#25c99a" stroke-width="1"/>
<rect x="1103.9" y="216.1" width="4.3" height="9.6" fill="#25c99a"/>
<line x1="1113.0" y1="205.1" x2="1113.0" y2="222.4" stroke="#25c99a" stroke-width="1"/>
<rect x="1110.9" y="207.7" width="4.3" height="8.3" fill="#25c99a"/>
<line x1="1120.0" y1="205.3" x2="1120.0" y2="217.7" stroke="#ff6078" stroke-width="1"/>
<rect x="1117.8" y="207.7" width="4.3" height="2.3" fill="#ff6078"/>
<line x1="1127.0" y1="207.0" x2="1127.0" y2="234.1" stroke="#ff6078" stroke-width="1"/>
<rect x="1124.8" y="210.0" width="4.3" height="24.0" fill="#ff6078"/>
<line x1="1134.0" y1="225.5" x2="1134.0" y2="236.0" stroke="#25c99a" stroke-width="1"/>
<rect x="1131.8" y="226.4" width="4.3" height="7.7" fill="#25c99a"/>
<line x1="1141.0" y1="213.2" x2="1141.0" y2="229.2" stroke="#25c99a" stroke-width="1"/>
<rect x="1138.8" y="213.3" width="4.3" height="12.9" fill="#25c99a"/>
<line x1="1148.0" y1="213.3" x2="1148.0" y2="226.7" stroke="#ff6078" stroke-width="1"/>
<rect x="1145.8" y="213.3" width="4.3" height="12.0" fill="#ff6078"/>
<line x1="1155.0" y1="222.4" x2="1155.0" y2="229.8" stroke="#25c99a" stroke-width="1"/>
<rect x="1152.8" y="224.1" width="4.3" height="1.3" fill="#25c99a"/>
<line x1="1162.0" y1="221.6" x2="1162.0" y2="232.7" stroke="#ff6078" stroke-width="1"/>
<rect x="1159.8" y="224.1" width="4.3" height="2.3" fill="#ff6078"/>
<line x1="1168.9" y1="225.1" x2="1168.9" y2="244.9" stroke="#ff6078" stroke-width="1"/>
<rect x="1166.8" y="226.3" width="4.3" height="18.3" fill="#ff6078"/>
<line x1="1175.9" y1="229.4" x2="1175.9" y2="244.6" stroke="#25c99a" stroke-width="1"/>
<rect x="1173.8" y="230.1" width="4.3" height="14.5" fill="#25c99a"/>
<line x1="1182.9" y1="216.8" x2="1182.9" y2="230.1" stroke="#25c99a" stroke-width="1"/>
<rect x="1180.8" y="216.8" width="4.3" height="13.3" fill="#25c99a"/>
<line x1="1189.9" y1="207.7" x2="1189.9" y2="222.3" stroke="#25c99a" stroke-width="1"/>
<rect x="1187.7" y="209.3" width="4.3" height="7.5" fill="#25c99a"/>
<line x1="1196.9" y1="209.1" x2="1196.9" y2="218.4" stroke="#ff6078" stroke-width="1"/>
<rect x="1194.7" y="209.3" width="4.3" height="3.6" fill="#ff6078"/>
<line x1="1203.9" y1="212.7" x2="1203.9" y2="221.7" stroke="#ff6078" stroke-width="1"/>
<rect x="1201.7" y="212.7" width="4.3" height="3.0" fill="#ff6078"/>
<line x1="1210.9" y1="211.8" x2="1210.9" y2="225.7" stroke="#ff6078" stroke-width="1"/>
<rect x="1208.7" y="215.7" width="4.3" height="9.4" fill="#ff6078"/>
<line x1="1217.9" y1="211.7" x2="1217.9" y2="227.3" stroke="#25c99a" stroke-width="1"/>
<rect x="1215.7" y="214.3" width="4.3" height="10.8" fill="#25c99a"/>
<line x1="1224.9" y1="207.7" x2="1224.9" y2="215.5" stroke="#25c99a" stroke-width="1"/>
<rect x="1222.7" y="210.0" width="4.3" height="4.2" fill="#25c99a"/>
<line x1="1231.9" y1="200.6" x2="1231.9" y2="210.2" stroke="#25c99a" stroke-width="1"/>
<rect x="1229.7" y="203.0" width="4.3" height="6.9" fill="#25c99a"/>
<line x1="1238.8" y1="201.6" x2="1238.8" y2="207.0" stroke="#25c99a" stroke-width="1"/>
<rect x="1236.7" y="201.7" width="4.3" height="1.4" fill="#25c99a"/>
<line x1="1245.8" y1="198.7" x2="1245.8" y2="204.7" stroke="#25c99a" stroke-width="1"/>
<rect x="1243.7" y="199.5" width="4.3" height="2.2" fill="#25c99a"/>
<line x1="1252.8" y1="196.1" x2="1252.8" y2="202.6" stroke="#ff6078" stroke-width="1"/>
<rect x="1250.7" y="199.5" width="4.3" height="1.2" fill="#ff6078"/>
<line x1="1259.8" y1="199.6" x2="1259.8" y2="208.7" stroke="#ff6078" stroke-width="1"/>
<rect x="1257.6" y="200.1" width="4.3" height="4.1" fill="#ff6078"/>
<line x1="1266.8" y1="199.9" x2="1266.8" y2="210.2" stroke="#ff6078" stroke-width="1"/>
<rect x="1264.6" y="203.7" width="4.3" height="5.8" fill="#ff6078"/>
<line x1="1273.8" y1="197.6" x2="1273.8" y2="209.8" stroke="#25c99a" stroke-width="1"/>
<rect x="1271.6" y="198.6" width="4.3" height="10.9" fill="#25c99a"/>
<line x1="1280.8" y1="197.5" x2="1280.8" y2="207.5" stroke="#ff6078" stroke-width="1"/>
<rect x="1278.6" y="198.3" width="4.3" height="2.0" fill="#ff6078"/>
<line x1="1287.8" y1="197.3" x2="1287.8" y2="203.3" stroke="#25c99a" stroke-width="1"/>
<rect x="1285.6" y="199.4" width="4.3" height="1.2" fill="#25c99a"/>
<line x1="1294.8" y1="196.5" x2="1294.8" y2="203.0" stroke="#ff6078" stroke-width="1"/>
<rect x="1292.6" y="199.1" width="4.3" height="1.2" fill="#ff6078"/>
<line x1="1301.8" y1="190.5" x2="1301.8" y2="201.3" stroke="#25c99a" stroke-width="1"/>
<rect x="1299.6" y="192.9" width="4.3" height="7.1" fill="#25c99a"/>
<line x1="1308.7" y1="191.1" x2="1308.7" y2="197.7" stroke="#ff6078" stroke-width="1"/>
<rect x="1306.6" y="192.9" width="4.3" height="2.3" fill="#ff6078"/>
<line x1="1315.7" y1="192.3" x2="1315.7" y2="198.6" stroke="#25c99a" stroke-width="1"/>
<rect x="1313.6" y="193.4" width="4.3" height="1.8" fill="#25c99a"/>
<line x1="1322.7" y1="190.9" x2="1322.7" y2="199.4" stroke="#ff6078" stroke-width="1"/>
<rect x="1320.6" y="193.4" width="4.3" height="1.2" fill="#ff6078"/>
<line x1="1329.7" y1="185.3" x2="1329.7" y2="195.2" stroke="#25c99a" stroke-width="1"/>
<rect x="1327.5" y="187.1" width="4.3" height="6.9" fill="#25c99a"/>
<line x1="1336.7" y1="175.4" x2="1336.7" y2="187.5" stroke="#25c99a" stroke-width="1"/>
<rect x="1334.5" y="175.4" width="4.3" height="12.1" fill="#25c99a"/>
<line x1="1343.7" y1="174.8" x2="1343.7" y2="182.2" stroke="#ff6078" stroke-width="1"/>
<rect x="1341.5" y="175.1" width="4.3" height="6.1" fill="#ff6078"/>
<line x1="1350.7" y1="172.1" x2="1350.7" y2="181.2" stroke="#25c99a" stroke-width="1"/>
<rect x="1348.5" y="172.2" width="4.3" height="9.0" fill="#25c99a"/>
<line x1="1357.7" y1="171.6" x2="1357.7" y2="182.7" stroke="#ff6078" stroke-width="1"/>
<rect x="1355.5" y="172.2" width="4.3" height="7.4" fill="#ff6078"/>
<line x1="1364.7" y1="164.5" x2="1364.7" y2="183.3" stroke="#25c99a" stroke-width="1"/>
<rect x="1362.5" y="166.0" width="4.3" height="13.5" fill="#25c99a"/>
<line x1="1371.7" y1="148.8" x2="1371.7" y2="166.0" stroke="#25c99a" stroke-width="1"/>
<rect x="1369.5" y="151.4" width="4.3" height="14.7" fill="#25c99a"/>
<line x1="1378.6" y1="151.3" x2="1378.6" y2="159.5" stroke="#ff6078" stroke-width="1"/>
<rect x="1376.5" y="151.3" width="4.3" height="7.6" fill="#ff6078"/>
<line x1="1385.6" y1="158.9" x2="1385.6" y2="170.5" stroke="#ff6078" stroke-width="1"/>
<rect x="1383.5" y="158.9" width="4.3" height="6.2" fill="#ff6078"/>
<line x1="1392.6" y1="162.7" x2="1392.6" y2="172.2" stroke="#ff6078" stroke-width="1"/>
<rect x="1390.5" y="165.1" width="4.3" height="6.7" fill="#ff6078"/>
<line x1="1399.6" y1="169.8" x2="1399.6" y2="175.0" stroke="#ff6078" stroke-width="1"/>
<rect x="1397.4" y="171.8" width="4.3" height="3.0" fill="#ff6078"/>
<line x1="1406.6" y1="170.1" x2="1406.6" y2="176.7" stroke="#25c99a" stroke-width="1"/>
<rect x="1404.4" y="173.2" width="4.3" height="1.6" fill="#25c99a"/>
<line x1="1413.6" y1="167.8" x2="1413.6" y2="175.1" stroke="#25c99a" stroke-width="1"/>
<rect x="1411.4" y="172.0" width="4.3" height="1.5" fill="#25c99a"/>
<line x1="1420.6" y1="165.3" x2="1420.6" y2="172.3" stroke="#25c99a" stroke-width="1"/>
<rect x="1418.4" y="166.4" width="4.3" height="5.9" fill="#25c99a"/>
<line x1="1427.6" y1="161.8" x2="1427.6" y2="169.7" stroke="#25c99a" stroke-width="1"/>
<rect x="1425.4" y="164.1" width="4.3" height="2.3" fill="#25c99a"/>
<line x1="1434.6" y1="162.7" x2="1434.6" y2="166.7" stroke="#ff6078" stroke-width="1"/>
<rect x="1432.4" y="164.1" width="4.3" height="2.0" fill="#ff6078"/>
<line x1="1441.6" y1="161.9" x2="1441.6" y2="174.9" stroke="#ff6078" stroke-width="1"/>
<rect x="1439.4" y="166.1" width="4.3" height="8.3" fill="#ff6078"/>
<line x1="1448.5" y1="159.0" x2="1448.5" y2="174.6" stroke="#25c99a" stroke-width="1"/>
<rect x="1446.4" y="160.0" width="4.3" height="14.4" fill="#25c99a"/>
<line x1="1455.5" y1="153.8" x2="1455.5" y2="160.8" stroke="#25c99a" stroke-width="1"/>
<rect x="1453.4" y="154.8" width="4.3" height="5.1" fill="#25c99a"/>
<line x1="1462.5" y1="144.5" x2="1462.5" y2="154.9" stroke="#25c99a" stroke-width="1"/>
<rect x="1460.4" y="149.2" width="4.3" height="5.6" fill="#25c99a"/>
<line x1="1469.5" y1="148.3" x2="1469.5" y2="157.2" stroke="#ff6078" stroke-width="1"/>
<rect x="1467.3" y="149.2" width="4.3" height="1.8" fill="#ff6078"/>
<line x1="1476.5" y1="147.4" x2="1476.5" y2="157.0" stroke="#ff6078" stroke-width="1"/>
<rect x="1474.3" y="151.0" width="4.3" height="2.5" fill="#ff6078"/>
<line x1="218.3" y1="271.0" x2="1480" y2="271.0" stroke="#6da9ff" stroke-width="1.5" stroke-dasharray="4 4"/>
<text x="1473.0" y="266.0" fill="#6da9ff" font-size="12" font-family="Segoe UI,Arial,sans-serif" text-anchor="end" font-weight="600">PENDING 4,301.23</text>
<line x1="218.3" y1="271.0" x2="1480" y2="271.0" stroke="#42d9e8" stroke-width="1.5"/>
<text x="1473.0" y="266.0" fill="#42d9e8" font-size="12" font-family="Segoe UI,Arial,sans-serif" text-anchor="end" font-weight="600">FILL 4,301.23</text>
<line x1="218.3" y1="167.4" x2="1480" y2="167.4" stroke="#ff6078" stroke-width="1.5"/>
<text x="1473.0" y="162.4" fill="#ff6078" font-size="12" font-family="Segoe UI,Arial,sans-serif" text-anchor="end" font-weight="600">SL 4,321.23</text>
<line x1="218.3" y1="685.5" x2="1480" y2="685.5" stroke="#25c99a" stroke-width="1.5"/>
<text x="1473.0" y="680.5" fill="#25c99a" font-size="12" font-family="Segoe UI,Arial,sans-serif" text-anchor="end" font-weight="600">TP 4,221.23</text>
<line x1="218.3" y1="167.4" x2="1480" y2="167.4" stroke="#f0bd4e" stroke-width="1.5" stroke-dasharray="6 3"/>
<text x="1473.0" y="162.4" fill="#f0bd4e" font-size="12" font-family="Segoe UI,Arial,sans-serif" text-anchor="end" font-weight="600">EXIT 4,321.23</text>
<line x1="218.3" y1="112" x2="218.3" y2="718" stroke="#42d9e8" stroke-width="2"/>
<line x1="1364.7" y1="112" x2="1364.7" y2="718" stroke="#f0bd4e" stroke-width="2"/>
<text x="223.3" y="706.0" fill="#42d9e8" font-size="12" font-family="Segoe UI,Arial,sans-serif" text-anchor="start" font-weight="400">ENTRY</text>
<text x="1359.7" y="706.0" fill="#f0bd4e" font-size="12" font-family="Segoe UI,Arial,sans-serif" text-anchor="end" font-weight="400">EXIT</text>
<text x="85.5" y="746.0" fill="#8799b0" font-size="12" font-family="Segoe UI,Arial,sans-serif" text-anchor="middle" font-weight="400">Dec 12 23:31</text>
<text x="316.2" y="746.0" fill="#8799b0" font-size="12" font-family="Segoe UI,Arial,sans-serif" text-anchor="middle" font-weight="400">Dec 15 01:09</text>
<text x="546.8" y="746.0" fill="#8799b0" font-size="12" font-family="Segoe UI,Arial,sans-serif" text-anchor="middle" font-weight="400">Dec 15 01:42</text>
<text x="784.5" y="746.0" fill="#8799b0" font-size="12" font-family="Segoe UI,Arial,sans-serif" text-anchor="middle" font-weight="400">Dec 15 02:16</text>
<text x="1015.2" y="746.0" fill="#8799b0" font-size="12" font-family="Segoe UI,Arial,sans-serif" text-anchor="middle" font-weight="400">Dec 15 02:49</text>
<text x="1245.8" y="746.0" fill="#8799b0" font-size="12" font-family="Segoe UI,Arial,sans-serif" text-anchor="middle" font-weight="400">Dec 15 03:22</text>
<text x="1476.5" y="746.0" fill="#8799b0" font-size="12" font-family="Segoe UI,Arial,sans-serif" text-anchor="middle" font-weight="400">Dec 15 03:55</text>
<text x="82.0" y="790.0" fill="#92a6bf" font-size="15" font-family="Segoe UI,Arial,sans-serif" text-anchor="start" font-weight="400">Offset $1.5  |  lead 5m  |  SL $20  |  RR 4:1  |  max hold 720 market minutes</text>
</svg>