<svg xmlns="http://www.w3.org/2000/svg" viewBox="0 0 1600 820" role="img" aria-label="Trade 42 chart">
<rect width="1600" height="820" fill="#080d16"/>
<text x="40.0" y="42.0" fill="#dce7f7" font-size="28" font-family="Segoe UI,Arial,sans-serif" text-anchor="start" font-weight="600">Trade 42 / BUY / FRIDAY FILL</text>
<text x="40.0" y="76.0" fill="#92a6bf" font-size="16" font-family="Segoe UI,Arial,sans-serif" text-anchor="start" font-weight="400">Entry 2026-06-26 23:52 UTC  |  Exit 2026-06-29 01:18 UTC</text>
<text x="1560.0" y="43.0" fill="#ff647c" font-size="28" font-family="Segoe UI,Arial,sans-serif" text-anchor="end" font-weight="600">-1.000R</text>
<text x="1560.0" y="76.0" fill="#92a6bf" font-size="16" font-family="Segoe UI,Arial,sans-serif" text-anchor="end" font-weight="400">SL  |  spread $0.42</text>
<rect x="82" y="112" width="1398" height="606" fill="#0c1421" stroke="#25344a"/>
<line x1="82" y1="112.0" x2="1480" y2="112.0" stroke="#233047" stroke-width="1"/>
<text x="1492.0" y="117.0" fill="#8799b0" font-size="13" font-family="Segoe UI,Arial,sans-serif" text-anchor="start" font-weight="400">4,163.56</text>
<line x1="82" y1="233.2" x2="1480" y2="233.2" stroke="#233047" stroke-width="1"/>
<text x="1492.0" y="238.2" fill="#8799b0" font-size="13" font-family="Segoe UI,Arial,sans-serif" text-anchor="start" font-weight="400">4,140.24</text>
<line x1="82" y1="354.4" x2="1480" y2="354.4" stroke="#233047" stroke-width="1"/>
<text x="1492.0" y="359.4" fill="#8799b0" font-size="13" font-family="Segoe UI,Arial,sans-serif" text-anchor="start" font-weight="400">4,116.92</text>
<line x1="82" y1="475.6" x2="1480" y2="475.6" stroke="#233047" stroke-width="1"/>
<text x="1492.0" y="480.6" fill="#8799b0" font-size="13" font-family="Segoe UI,Arial,sans-serif" text-anchor="start" font-weight="400">4,093.59</text>
<line x1="82" y1="596.8" x2="1480" y2="596.8" stroke="#233047" stroke-width="1"/>
<text x="1492.0" y="601.8" fill="#8799b0" font-size="13" font-family="Segoe UI,Arial,sans-serif" text-anchor="start" font-weight="400">4,070.27</text>
<line x1="82" y1="718.0" x2="1480" y2="718.0" stroke="#233047" stroke-width="1"/>
<text x="1492.0" y="723.0" fill="#8799b0" font-size="13" font-family="Segoe UI,Arial,sans-serif" text-anchor="start" font-weight="400">4,046.95</text>
<rect x="650.7" y="112" width="23.7" height="606" fill="#f0bd4e" fill-opacity="0.18"/>
<text x="669.5" y="133.0" fill="#f0bd4e" font-size="13" font-family="Segoe UI,Arial,sans-serif" text-anchor="start" font-weight="400">WEEKLY REOPEN</text>
<line x1="93.8" y1="594.7" x2="93.8" y2="610.0" stroke="#ff6078" stroke-width="1"/>
<rect x="90.3" y="594.9" width="7.0" height="9.8" fill="#ff6078"/>
<line x1="117.5" y1="600.2" x2="117.5" y2="609.8" stroke="#ff6078" stroke-width="1"/>
<rect x="114.0" y="604.1" width="7.0" height="3.3" fill="#ff6078"/>
<line x1="141.2" y1="604.7" x2="141.2" y2="613.8" stroke="#25c99a" stroke-width="1"/>
<rect x="137.7" y="606.6" width="7.0" height="1.2" fill="#25c99a"/>
<line x1="164.9" y1="596.9" x2="164.9" y2="606.4" stroke="#25c99a" stroke-width="1"/>
<rect x="161.4" y="598.4" width="7.0" height="7.8" fill="#25c99a"/>
<line x1="188.6" y1="596.5" x2="188.6" y2="600.5" stroke="#ff6078" stroke-width="1"/>
<rect x="185.1" y="598.4" width="7.0" height="1.2" fill="#ff6078"/>
<line x1="212.3" y1="596.6" x2="212.3" y2="606.7" stroke="#ff6078" stroke-width="1"/>
<rect x="208.8" y="599.2" width="7.0" height="6.6" fill="#ff6078"/>
<line x1="236.0" y1="600.1" x2="236.0" y2="606.2" stroke="#25c99a" stroke-width="1"/>
<rect x="232.5" y="600.6" width="7.0" height="5.0" fill="#25c99a"/>
<line x1="259.7" y1="595.7" x2="259.7" y2="603.1" stroke="#25c99a" stroke-width="1"/>
<rect x="256.2" y="595.9" width="7.0" height="4.7" fill="#25c99a"/>
<line x1="283.4" y1="595.9" x2="283.4" y2="602.0" stroke="#ff6078" stroke-width="1"/>
<rect x="279.9" y="595.9" width="7.0" height="5.1" fill="#ff6078"/>
<line x1="307.1" y1="598.1" x2="307.1" y2="603.3" stroke="#25c99a" stroke-width="1"/>
<rect x="303.6" y="598.1" width="7.0" height="3.0" fill="#25c99a"/>
<line x1="330.8" y1="593.0" x2="330.8" y2="599.3" stroke="#25c99a" stroke-width="1"/>
<rect x="327.3" y="595.8" width="7.0" height="2.2" fill="#25c99a"/>
<line x1="354.5" y1="595.8" x2="354.5" y2="598.0" stroke="#ff6078" stroke-width="1"/>
<rect x="351.0" y="595.8" width="7.0" height="1.7" fill="#ff6078"/>
<line x1="378.2" y1="596.4" x2="378.2" y2="600.4" stroke="#25c99a" stroke-width="1"/>
<rect x="374.7" y="596.7" width="7.0" height="1.2" fill="#25c99a"/>
<line x1="401.9" y1="592.8" x2="401.9" y2="597.8" stroke="#25c99a" stroke-width="1"/>
<rect x="398.4" y="594.6" width="7.0" height="2.1" fill="#25c99a"/>
<line x1="425.6" y1="585.3" x2="425.6" y2="596.9" stroke="#25c99a" stroke-width="1"/>
<rect x="422.1" y="588.9" width="7.0" height="5.9" fill="#25c99a"/>
<line x1="449.3" y1="578.6" x2="449.3" y2="589.0" stroke="#25c99a" stroke-width="1"/>
<rect x="445.8" y="580.4" width="7.0" height="8.5" fill="#25c99a"/>
<line x1="473.0" y1="580.2" x2="473.0" y2="582.9" stroke="#25c99a" stroke-width="1"/>
<rect x="469.5" y="580.8" width="7.0" height="1.2" fill="#25c99a"/>
<line x1="496.7" y1="575.5" x2="496.7" y2="581.3" stroke="#25c99a" stroke-width="1"/>
<rect x="493.2" y="577.2" width="7.0" height="3.6" fill="#25c99a"/>
<line x1="520.4" y1="568.0" x2="520.4" y2="577.2" stroke="#25c99a" stroke-width="1"/>
<rect x="516.9" y="569.0" width="7.0" height="7.6" fill="#25c99a"/>
<line x1="544.1" y1="568.4" x2="544.1" y2="580.7" stroke="#ff6078" stroke-width="1"/>
<rect x="540.6" y="569.0" width="7.0" height="11.2" fill="#ff6078"/>
<line x1="567.7" y1="570.2" x2="567.7" y2="581.0" stroke="#25c99a" stroke-width="1"/>
<rect x="564.2" y="573.6" width="7.0" height="7.0" fill="#25c99a"/>
<line x1="591.4" y1="560.9" x2="591.4" y2="573.0" stroke="#25c99a" stroke-width="1"/>
<rect x="587.9" y="560.9" width="7.0" height="11.7" fill="#25c99a"/>
<line x1="615.1" y1="549.5" x2="615.1" y2="564.7" stroke="#25c99a" stroke-width="1"/>
<rect x="611.6" y="556.2" width="7.0" height="5.1" fill="#25c99a"/>
<line x1="638.8" y1="537.2" x2="638.8" y2="559.4" stroke="#25c99a" stroke-width="1"/>
<rect x="635.3" y="542.0" width="7.0" height="14.2" fill="#25c99a"/>
<line x1="662.5" y1="514.9" x2="662.5" y2="560.1" stroke="#ff6078" stroke-width="1"/>
<rect x="659.0" y="532.7" width="7.0" height="13.0" fill="#ff6078"/>
<line x1="686.2" y1="547.8" x2="686.2" y2="579.7" stroke="#ff6078" stroke-width="1"/>
<rect x="682.7" y="548.3" width="7.0" height="27.1" fill="#ff6078"/>
<line x1="709.9" y1="526.9" x2="709.9" y2="586.7" stroke="#25c99a" stroke-width="1"/>
<rect x="706.4" y="530.0" width="7.0" height="49.0" fill="#25c99a"/>
<line x1="733.6" y1="514.8" x2="733.6" y2="566.9" stroke="#ff6078" stroke-width="1"/>
<rect x="730.1" y="528.1" width="7.0" height="25.9" fill="#ff6078"/>
<line x1="757.3" y1="549.7" x2="757.3" y2="575.1" stroke="#ff6078" stroke-width="1"/>
<rect x="753.8" y="553.8" width="7.0" height="14.3" fill="#ff6078"/>
<line x1="781.0" y1="563.6" x2="781.0" y2="580.3" stroke="#ff6078" stroke-width="1"/>
<rect x="777.5" y="568.1" width="7.0" height="4.4" fill="#ff6078"/>
<line x1="804.7" y1="545.8" x2="804.7" y2="572.7" stroke="#25c99a" stroke-width="1"/>
<rect x="801.2" y="551.3" width="7.0" height="21.1" fill="#25c99a"/>
<line x1="828.4" y1="527.4" x2="828.4" y2="551.5" stroke="#25c99a" stroke-width="1"/>
<rect x="824.9" y="531.5" width="7.0" height="19.6" fill="#25c99a"/>
<line x1="852.1" y1="532.0" x2="852.1" y2="571.6" stroke="#ff6078" stroke-width="1"/>
<rect x="848.6" y="532.0" width="7.0" height="28.2" fill="#ff6078"/>
<line x1="875.8" y1="543.9" x2="875.8" y2="566.1" stroke="#ff6078" stroke-width="1"/>
<rect x="872.3" y="560.2" width="7.0" height="5.8" fill="#ff6078"/>
<line x1="899.5" y1="555.7" x2="899.5" y2="572.0" stroke="#25c99a" stroke-width="1"/>
<rect x="896.0" y="559.3" width="7.0" height="6.4" fill="#25c99a"/>
<line x1="923.2" y1="559.2" x2="923.2" y2="571.4" stroke="#ff6078" stroke-width="1"/>
<rect x="919.7" y="559.3" width="7.0" height="10.8" fill="#ff6078"/>
<line x1="946.9" y1="566.4" x2="946.9" y2="595.0" stroke="#ff6078" stroke-width="1"/>
<rect x="943.4" y="570.1" width="7.0" height="18.8" fill="#ff6078"/>
<line x1="970.6" y1="572.0" x2="970.6" y2="589.0" stroke="#25c99a" stroke-width="1"/>
<rect x="967.1" y="587.4" width="7.0" height="1.5" fill="#25c99a"/>
<line x1="994.3" y1="577.4" x2="994.3" y2="597.4" stroke="#ff6078" stroke-width="1"/>
<rect x="990.8" y="587.4" width="7.0" height="9.4" fill="#ff6078"/>
<line x1="1017.9" y1="594.5" x2="1017.9" y2="620.6" stroke="#ff6078" stroke-width="1"/>
<rect x="1014.4" y="597.2" width="7.0" height="22.6" fill="#ff6078"/>
<line x1="1041.6" y1="608.7" x2="1041.6" y2="639.3" stroke="#ff6078" stroke-width="1"/>
<rect x="1038.1" y="619.7" width="7.0" height="16.2" fill="#ff6078"/>
<line x1="1065.3" y1="626.8" x2="1065.3" y2="640.5" stroke="#ff6078" stroke-width="1"/>
<rect x="1061.8" y="634.5" width="7.0" height="3.1" fill="#ff6078"/>
<line x1="1089.0" y1="630.6" x2="1089.0" y2="685.5" stroke="#ff6078" stroke-width="1"/>
<rect x="1085.5" y="632.0" width="7.0" height="45.9" fill="#ff6078"/>
<line x1="1112.7" y1="648.1" x2="1112.7" y2="678.7" stroke="#25c99a" stroke-width="1"/>
<rect x="1109.2" y="649.5" width="7.0" height="23.2" fill="#25c99a"/>
<line x1="1136.4" y1="637.8" x2="1136.4" y2="669.5" stroke="#ff6078" stroke-width="1"/>
<rect x="1132.9" y="649.5" width="7.0" height="6.2" fill="#ff6078"/>
<line x1="1160.1" y1="636.4" x2="1160.1" y2="655.7" stroke="#25c99a" stroke-width="1"/>
<rect x="1156.6" y="647.3" width="7.0" height="8.4" fill="#25c99a"/>
<line x1="1183.8" y1="636.5" x2="1183.8" y2="648.6" stroke="#25c99a" stroke-width="1"/>
<rect x="1180.3" y="642.3" width="7.0" height="5.1" fill="#25c99a"/>
<line x1="1207.5" y1="637.7" x2="1207.5" y2="651.1" stroke="#ff6078" stroke-width="1"/>
<rect x="1204.0" y="642.0" width="7.0" height="9.0" fill="#ff6078"/>
<line x1="1231.2" y1="648.7" x2="1231.2" y2="655.2" stroke="#ff6078" stroke-width="1"/>
<rect x="1227.7" y="651.1" width="7.0" height="1.6" fill="#ff6078"/>
<line x1="1254.9" y1="644.3" x2="1254.9" y2="657.9" stroke="#25c99a" stroke-width="1"/>
<rect x="1251.4" y="647.4" width="7.0" height="5.2" fill="#25c99a"/>
<line x1="1278.6" y1="642.5" x2="1278.6" y2="659.7" stroke="#ff6078" stroke-width="1"/>
<rect x="1275.1" y="647.4" width="7.0" height="11.1" fill="#ff6078"/>
<line x1="1302.3" y1="658.4" x2="1302.3" y2="667.7" stroke="#ff6078" stroke-width="1"/>
<rect x="1298.8" y="658.6" width="7.0" height="4.6" fill="#ff6078"/>
<line x1="1326.0" y1="647.6" x2="1326.0" y2="663.1" stroke="#25c99a" stroke-width="1"/>
<rect x="1322.5" y="657.6" width="7.0" height="5.5" fill="#25c99a"/>
<line x1="1349.7" y1="655.5" x2="1349.7" y2="666.3" stroke="#ff6078" stroke-width="1"/>
<rect x="1346.2" y="657.7" width="7.0" height="6.8" fill="#ff6078"/>
<line x1="1373.4" y1="647.9" x2="1373.4" y2="668.8" stroke="#25c99a" stroke-width="1"/>
<rect x="1369.9" y="656.0" width="7.0" height="8.5" fill="#25c99a"/>
<line x1="1397.1" y1="651.6" x2="1397.1" y2="663.9" stroke="#ff6078" stroke-width="1"/>
<rect x="1393.6" y="656.0" width="7.0" height="7.9" fill="#ff6078"/>
<line x1="1420.8" y1="635.7" x2="1420.8" y2="664.1" stroke="#25c99a" stroke-width="1"/>
<rect x="1417.3" y="641.3" width="7.0" height="22.8" fill="#25c99a"/>
<line x1="1444.5" y1="638.7" x2="1444.5" y2="650.5" stroke="#ff6078" stroke-width="1"/>
<rect x="1441.0" y="641.2" width="7.0" height="6.1" fill="#ff6078"/>
<line x1="1468.2" y1="645.7" x2="1468.2" y2="664.9" stroke="#ff6078" stroke-width="1"/>
<rect x="1464.7" y="647.3" width="7.0" height="17.6" fill="#ff6078"/>
<line x1="591.4" y1="560.2" x2="1480" y2="560.2" stroke="#6da9ff" stroke-width="1.5" stroke-dasharray="4 4"/>
<text x="1473.0" y="555.2" fill="#6da9ff" font-size="12" font-family="Segoe UI,Arial,sans-serif" text-anchor="end" font-weight="600">PENDING 4,077.31</text>
<line x1="591.4" y1="560.2" x2="1480" y2="560.2" stroke="#42d9e8" stroke-width="1.5"/>
<text x="1473.0" y="555.2" fill="#42d9e8" font-size="12" font-family="Segoe UI,Arial,sans-serif" text-anchor="end" font-weight="600">FILL 4,077.31</text>
<line x1="591.4" y1="664.2" x2="1480" y2="664.2" stroke="#ff6078" stroke-width="1.5"/>
<text x="1473.0" y="659.2" fill="#ff6078" font-size="12" font-family="Segoe UI,Arial,sans-serif" text-anchor="end" font-weight="600">SL 4,057.31</text>
<line x1="591.4" y1="144.5" x2="1480" y2="144.5" stroke="#25c99a" stroke-width="1.5"/>
<text x="1473.0" y="139.5" fill="#25c99a" font-size="12" font-family="Segoe UI,Arial,sans-serif" text-anchor="end" font-weight="600">TP 4,157.31</text>
<line x1="591.4" y1="664.2" x2="1480" y2="664.2" stroke="#f0bd4e" stroke-width="1.5" stroke-dasharray="6 3"/>
<text x="1473.0" y="659.2" fill="#f0bd4e" font-size="12" font-family="Segoe UI,Arial,sans-serif" text-anchor="end" font-weight="600">EXIT 4,057.31</text>
<line x1="591.4" y1="112" x2="591.4" y2="718" stroke="#42d9e8" stroke-width="2"/>
<line x1="1089.0" y1="112" x2="1089.0" y2="718" stroke="#f0bd4e" stroke-width="2"/>
<text x="596.4" y="706.0" fill="#42d9e8" font-size="12" font-family="Segoe UI,Arial,sans-serif" text-anchor="start" font-weight="400">ENTRY</text>
<text x="1084.0" y="706.0" fill="#f0bd4e" font-size="12" font-family="Segoe UI,Arial,sans-serif" text-anchor="end" font-weight="400">EXIT</text>
<text x="93.8" y="746.0" fill="#8799b0" font-size="12" font-family="Segoe UI,Arial,sans-serif" text-anchor="middle" font-weight="400">Jun 26 23:31</text>
<text x="330.8" y="746.0" fill="#8799b0" font-size="12" font-family="Segoe UI,Arial,sans-serif" text-anchor="middle" font-weight="400">Jun 26 23:41</text>
<text x="544.1" y="746.0" fill="#8799b0" font-size="12" font-family="Segoe UI,Arial,sans-serif" text-anchor="middle" font-weight="400">Jun 26 23:50</text>
<text x="781.0" y="746.0" fill="#8799b0" font-size="12" font-family="Segoe UI,Arial,sans-serif" text-anchor="middle" font-weight="400">Jun 29 01:05</text>
<text x="1017.9" y="746.0" fill="#8799b0" font-size="12" font-family="Segoe UI,Arial,sans-serif" text-anchor="middle" font-weight="400">Jun 29 01:15</text>
<text x="1231.2" y="746.0" fill="#8799b0" font-size="12" font-family="Segoe UI,Arial,sans-serif" text-anchor="middle" font-weight="400">Jun 29 01:24</text>
<text x="1468.2" y="746.0" fill="#8799b0" font-size="12" font-family="Segoe UI,Arial,sans-serif" text-anchor="middle" font-weight="400">Jun 29 01:34</text>
<text x="82.0" y="790.0" fill="#92a6bf" font-size="15" font-family="Segoe UI,Arial,sans-serif" text-anchor="start" font-weight="400">Offset $1.5  |  lead 5m  |  SL $20  |  RR 4:1  |  max hold 720 market minutes</text>
</svg>